<svg xmlns="http://www.w3.org/2000/svg" width="36" height="36" viewBox="0 0 36 36"><defs><style>.a{fill:none;}.b{fill:rgba(255,255,255,0.3);}</style></defs><g transform="translate(-7753 -2025)"><rect class="a" width="36" height="36" transform="translate(7753 2025)"/><path class="b" d="M11.047,20.405a.644.644,0,0,1-.654-.661V14.3H6.948a.654.654,0,0,1-.57-.96l4.767-9.432a.615.615,0,0,1,.561-.361.654.654,0,0,1,.656.664V9.721h3.29a.641.641,0,0,1,.548.309.665.665,0,0,1,.035.638l-4.611,9.365A.63.63,0,0,1,11.047,20.405Z" transform="matrix(0.978, 0.208, -0.208, 0.978, 7762.08, 2029.222)"/></g></svg>