<svg xmlns="http://www.w3.org/2000/svg" width="213" height="36" viewBox="0 0 213 36"><defs><style>.a{fill:none;}</style></defs><g transform="translate(-91 -586)"><rect class="a" width="213" height="36" transform="translate(91 586)"/><path d="M17.766,0H12.5L11.227-2.883A11.987,11.987,0,0,0,9.961-5.2a2.73,2.73,0,0,0-1.1-.937A3.891,3.891,0,0,0,7.488-6.34H6.938V0h-4.9V-16.242h8.332a6.058,6.058,0,0,1,3.3.82,4.924,4.924,0,0,1,1.857,1.992A5.111,5.111,0,0,1,16.1-11.2a4.21,4.21,0,0,1-.475,2.08,3.811,3.811,0,0,1-1,1.236,9.925,9.925,0,0,1-1.184.738,4.678,4.678,0,0,1,1.295,1.084,13.624,13.624,0,0,1,1.389,2.537ZM11.109-11.109a1.682,1.682,0,0,0-.738-1.57,4.859,4.859,0,0,0-2.4-.445H6.938v3.914H7.992A5.29,5.29,0,0,0,10.447-9.6,1.6,1.6,0,0,0,11.109-11.109ZM37.828,0H32.813L31.488-3.293H24.434L23.086,0H18.07l7.184-16.242h5.414ZM30.363-6.117l-2.379-5.93-2.4,5.93Zm23.684-5.016a5.163,5.163,0,0,1-.311,1.764,4.694,4.694,0,0,1-1,1.605,5,5,0,0,1-1.869,1.207,7.558,7.558,0,0,1-2.771.463H44.883V0h-4.9V-16.242h8.109a7.473,7.473,0,0,1,2.771.469,5.014,5.014,0,0,1,1.869,1.219,4.712,4.712,0,0,1,1,1.629A5.345,5.345,0,0,1,54.047-11.133Zm-4.992.023a1.722,1.722,0,0,0-.686-1.588,4.991,4.991,0,0,0-2.455-.428H44.883v3.914h1.055a8.8,8.8,0,0,0,1.875-.152,1.537,1.537,0,0,0,.949-.562A2.021,2.021,0,0,0,49.055-11.109ZM61.688,0h-4.9V-16.242h4.9Zm20.8-7.828A7.728,7.728,0,0,1,81.58-3.82a8.588,8.588,0,0,1-2.139,2.449A7.737,7.737,0,0,1,74.555,0H65.789V-16.242h6.75a18.388,18.388,0,0,1,2.607.158,11.513,11.513,0,0,1,1.951.445,7.733,7.733,0,0,1,1.477.645,7.58,7.58,0,0,1,1.09.768,7.455,7.455,0,0,1,1.459,1.605,7.862,7.862,0,0,1,1,2.145A9.1,9.1,0,0,1,82.488-7.828Zm-4.98-.211a5.427,5.427,0,0,0-.756-3.088,3.7,3.7,0,0,0-1.816-1.482,6.442,6.442,0,0,0-2.162-.375H70.688v9.621h2.086A5.97,5.97,0,0,0,76.1-4.277Q77.508-5.191,77.508-8.039Zm29.672,6.82a11.684,11.684,0,0,1-2.062.844,13.058,13.058,0,0,1-2.127.451,17.8,17.8,0,0,1-2.221.135,11.516,11.516,0,0,1-3.8-.586A8.234,8.234,0,0,1,94.049-2.1,7.321,7.321,0,0,1,92.2-4.775a8.916,8.916,0,0,1-.615-3.357,8.7,8.7,0,0,1,.727-3.674,7.1,7.1,0,0,1,2.033-2.619,8.71,8.71,0,0,1,2.977-1.541,12.258,12.258,0,0,1,3.521-.5,19.187,19.187,0,0,1,6.27,1.23v4.313a17.293,17.293,0,0,0-2.385-1.248,7.08,7.08,0,0,0-2.771-.5,6.294,6.294,0,0,0-2.648.563,4.893,4.893,0,0,0-1.98,1.605,4.065,4.065,0,0,0-.75,2.438,4.1,4.1,0,0,0,.656,2.256,4.645,4.645,0,0,0,1.822,1.629,5.638,5.638,0,0,0,2.631.6,8.488,8.488,0,0,0,2.238-.287A10.208,10.208,0,0,0,105.7-4.5a15.647,15.647,0,0,0,1.482-.832ZM127.629,0h-4.887V-6.34h-7.371V0h-4.9V-16.242h4.9v5.965h7.371v-5.965h4.887Zm21.914,0h-5.016L143.2-3.293h-7.055L134.8,0h-5.016l7.184-16.242h5.414Zm-7.465-6.117-2.379-5.93-2.4,5.93Zm22.793-6.176h-5.953V0h-4.887V-12.293h-5.953v-3.949h16.793Z" transform="translate(135 612)"/><g transform="translate(-3 -162)"><g transform="translate(94 748)"><path class="a" d="M0,0H36V36H0Z"/><path d="M-2818-2539l0,0-6-6h-15a3,3,0,0,1-3-3v-1.5h18a1.5,1.5,0,0,0,1.5-1.5v-12h1.5a3,3,0,0,1,3,3v21Zm-30-7.5V-2566a3,3,0,0,1,3-3h16.5a3,3,0,0,1,3,3v10.5a3,3,0,0,1-3,3H-2842l-6,6Zm12-20.251h0l-3.75,7.305h2.61v4.692l3.653-7.3H-2836v-4.7Z" transform="translate(2851 2572)"/></g></g></g></svg>