<svg xmlns="http://www.w3.org/2000/svg" width="120" height="120" viewBox="0 0 120 120"><defs><style>.a{fill:#ffa700;}.b,.e{fill:#fff;}.c{fill:none;}.d,.e{stroke:none;}</style></defs><g transform="translate(15 87)"><path class="d" d="M 44 2.799999237060547 C 41.56843185424805 2.799999237060547 39.46615219116211 2.101579189300537 37.92044067382812 0.7802392244338989 C 36.67938995361328 -0.2806607484817505 35.20000076293945 -2.276500701904297 35.20000076293945 -5.760000705718994 C 35.20000076293945 -7.711023807525635 35.4015007019043 -9.392087936401367 35.61944580078125 -10.91823959350586 L 36.74640274047852 -19.1200008392334 L 21.8221607208252 -19.1200008392334 L 19.90258407592773 -5.256394863128662 C 19.57330703735352 -2.688196182250977 18.48185539245605 -0.5806888937950134 16.74581146240234 0.8384592533111572 C 15.17601108551025 2.12170934677124 13.1476411819458 2.799999237060547 10.88000106811523 2.799999237060547 C 8.480511665344238 2.799999237060547 6.390691757202148 2.103359222412109 4.83648157119751 0.7853792309761047 C 3.578981637954712 -0.2809707522392273 2.080001592636108 -2.282140731811523 2.080001592636108 -5.760000705718994 C 2.080001592636108 -7.447950839996338 2.294971466064453 -8.941201210021973 2.522561550140381 -10.52212047576904 L 2.57945704460144 -10.9183521270752 L 7.858871459960938 -49.07411956787109 L 7.859481334686279 -49.0784797668457 L 7.860101699829102 -49.08283996582031 C 8.230961799621582 -51.67885971069336 9.327391624450684 -53.8001708984375 11.03084182739258 -55.21744918823242 C 12.58973121643066 -56.51445007324219 14.61234188079834 -57.20000076293945 16.88000106811523 -57.20000076293945 C 19.28640174865723 -57.20000076293945 21.378662109375 -56.49782180786133 22.93058204650879 -55.16937255859375 C 24.18485069274902 -54.09571075439453 25.68000221252441 -52.07752227783203 25.68000221252441 -48.56000137329102 C 25.68000221252441 -46.9770393371582 25.48634147644043 -45.59318161010742 25.28131103515625 -44.12807083129883 C 25.24853134155273 -43.89387893676758 25.21509170532227 -43.65496063232422 25.18166160583496 -43.40977096557617 L 24.12555503845215 -35.52000045776367 L 39.05381011962891 -35.52000045776367 L 40.89828109741211 -49.06975936889648 L 40.899169921875 -49.07630920410156 L 40.90010070800781 -49.08283996582031 C 41.27096176147461 -51.67885971069336 42.36738204956055 -53.8001823425293 44.07084274291992 -55.21744918823242 C 45.62972259521484 -56.51445007324219 47.6523323059082 -57.20000076293945 49.92000198364258 -57.20000076293945 C 52.32640075683594 -57.20000076293945 54.41866302490234 -56.49782180786133 55.9705810546875 -55.16937255859375 C 57.22484970092773 -54.09571075439453 58.72000122070312 -52.07752227783203 58.72000122070312 -48.56000137329102 C 58.72000122070312 -46.81834030151367 58.56661224365234 -45.35274124145508 58.30166244506836 -43.40977096557617 L 53.02113342285156 -5.245880603790283 L 53.02017211914062 -5.239000797271729 L 53.01917266845703 -5.232120990753174 C 52.64725112915039 -2.675150871276855 51.53609085083008 -0.5759707689285278 49.80581283569336 0.8384592533111572 C 48.23601150512695 2.12170934677124 46.22838973999023 2.799999237060547 44 2.799999237060547 Z"/><path class="e" d="M 16.88000106811523 -55.20000076293945 C 13.44000244140625 -55.20000076293945 10.48000335693359 -53.28000259399414 9.840000152587891 -48.79999923706055 L 4.560001373291016 -10.63999938964844 C 4.319999694824219 -8.959999084472656 4.080001831054688 -7.44000244140625 4.080001831054688 -5.760002136230469 C 4.080001831054688 -1.119998931884766 7.280002593994141 0.7999992370605469 10.88000106811523 0.7999992370605469 C 14.31999969482422 0.7999992370605469 17.36000061035156 -1.119998931884766 17.92000198364258 -5.520000457763672 L 20.08000183105469 -21.11999893188477 L 39.04000091552734 -21.11999893188477 L 37.60000228881836 -10.63999938964844 C 37.36000061035156 -8.959999084472656 37.20000076293945 -7.44000244140625 37.20000076293945 -5.760002136230469 C 37.20000076293945 -1.119998931884766 40.31999969482422 0.7999992370605469 44 0.7999992370605469 C 47.36000061035156 0.7999992370605469 50.40000152587891 -1.119998931884766 51.04000091552734 -5.520000457763672 L 56.31999969482422 -43.68000030517578 C 56.56000137329102 -45.44000244140625 56.72000122070312 -46.88000106811523 56.72000122070312 -48.56000137329102 C 56.72000122070312 -53.28000259399414 53.52000045776367 -55.20000076293945 49.92000198364258 -55.20000076293945 C 46.47998809814453 -55.20000076293945 43.52000427246094 -53.28000259399414 42.88000106811523 -48.79999923706055 L 40.80000305175781 -33.52000045776367 L 21.84000015258789 -33.52000045776367 L 23.20000076293945 -43.68000030517578 C 23.44000244140625 -45.44000244140625 23.68000030517578 -46.88000106811523 23.68000030517578 -48.56000137329102 C 23.68000030517578 -53.28000259399414 20.48000335693359 -55.20000076293945 16.88000106811523 -55.20000076293945 M 16.88000106811523 -59.20000076293945 C 19.76992416381836 -59.20000076293945 22.31191253662109 -58.33162307739258 24.23116683959961 -56.68874359130859 C 25.80451202392578 -55.34195709228516 27.68000030517578 -52.83845520019531 27.68000030517578 -48.56000137329102 C 27.68000030517578 -46.8377799987793 27.47696685791016 -45.38692474365234 27.26200103759766 -43.85087966918945 C 27.22963714599609 -43.61960601806641 27.19662094116211 -43.38368988037109 27.16360473632812 -43.14159393310547 L 26.41110610961914 -37.52000045776367 L 37.3076171875 -37.52000045776367 L 38.91655731201172 -49.33952331542969 L 38.9183349609375 -49.35261154174805 L 38.92020416259766 -49.36568832397461 C 39.36228942871094 -52.46033477783203 40.70103454589844 -55.01548004150391 42.79167938232422 -56.75490188598633 C 44.71426773071289 -58.35449981689453 47.17919921875 -59.20000076293945 49.92000198364258 -59.20000076293945 C 52.8099250793457 -59.20000076293945 55.35191345214844 -58.33162307739258 57.27116775512695 -56.68874359130859 C 58.84451293945312 -55.34195709228516 60.72000122070312 -52.83845520019531 60.72000122070312 -48.56000137329102 C 60.72000122070312 -46.71292114257812 60.55291366577148 -45.11655426025391 60.2833251953125 -43.13954544067383 L 60.28279113769531 -43.13565826416016 L 60.28225708007812 -43.13176727294922 L 55.00225830078125 -4.971767425537109 L 55.00034713745117 -4.958000183105469 L 54.99834442138672 -4.944244384765625 C 54.55325698852539 -1.88427734375 53.1954231262207 0.6507987976074219 51.07161331176758 2.386920928955078 C 49.14045715332031 3.965564727783203 46.69512176513672 4.799999237060547 44 4.799999237060547 C 41.08541107177734 4.799999237060547 38.53374481201172 3.935676574707031 36.62088012695312 2.300487518310547 C 35.0602912902832 0.9664306640625 33.20000076293945 -1.514888763427734 33.20000076293945 -5.760002136230469 C 33.20000076293945 -7.838672637939453 33.42153167724609 -9.673744201660156 33.63874053955078 -11.19545364379883 L 34.45279693603516 -17.11999893188477 L 23.56431579589844 -17.11999893188477 L 21.88492965698242 -4.991085052490234 C 21.48770523071289 -1.910816192626953 20.14868545532227 0.6399574279785156 18.01161193847656 2.386920928955078 C 16.0804557800293 3.965564727783203 13.6143798828125 4.799999237060547 10.88000106811523 4.799999237060547 C 8.000423431396484 4.799999237060547 5.463325500488281 3.939231872558594 3.542957305908203 2.310764312744141 C 1.963169097900391 0.9711112976074219 0.0800018310546875 -1.516544342041016 0.0800018310546875 -5.760002136230469 C 0.0800018310546875 -7.591178894042969 0.3153572082519531 -9.226055145263672 0.54296875 -10.80710220336914 L 0.5990943908691406 -11.19797134399414 L 5.87774658203125 -49.34823608398438 L 5.878955841064453 -49.35696792602539 L 5.880203247070312 -49.36568832397461 C 6.322288513183594 -52.46033477783203 7.661033630371094 -55.01548004150391 9.751678466796875 -56.75490188598633 C 11.67427825927734 -58.35449981689453 14.13921356201172 -59.20000076293945 16.88000106811523 -59.20000076293945 Z"/></g><g class="a" transform="translate(78 87)"><path class="d" d="M 10.88000011444092 2.799999237060547 C 8.480509757995605 2.799999237060547 6.390690326690674 2.103359222412109 4.836480140686035 0.7853792309761047 C 3.578980207443237 -0.2809707522392273 2.080000162124634 -2.282140731811523 2.080000162124634 -5.760000705718994 C 2.080000162124634 -7.447950839996338 2.294970035552979 -8.941201210021973 2.522560119628906 -10.52212047576904 L 2.579455614089966 -10.9183521270752 L 7.858870029449463 -49.07411956787109 L 7.859479904174805 -49.0784797668457 L 7.860100269317627 -49.08283996582031 C 8.230959892272949 -51.67885971069336 9.327389717102051 -53.8001708984375 11.03083992004395 -55.21744918823242 C 12.58973026275635 -56.51445007324219 14.61233997344971 -57.20000076293945 16.88000106811523 -57.20000076293945 C 19.28639984130859 -57.20000076293945 21.37866020202637 -56.49782180786133 22.93058013916016 -55.16937255859375 C 24.18485069274902 -54.09571075439453 25.68000030517578 -52.07752227783203 25.68000030517578 -48.56000137329102 C 25.68000030517578 -46.9770393371582 25.4863395690918 -45.59318161010742 25.28131103515625 -44.12807083129883 C 25.2485294342041 -43.89387893676758 25.21508979797363 -43.65496063232422 25.18165969848633 -43.40977096557617 L 19.90113067626953 -5.245880603790283 L 19.90016937255859 -5.239000797271729 L 19.899169921875 -5.232120990753174 C 19.52643966674805 -2.669610738754272 18.4277400970459 -0.5721507668495178 16.72184944152832 0.8334992527961731 C 15.16057014465332 2.119999170303345 13.14049053192139 2.799999237060547 10.88000011444092 2.799999237060547 Z"/><path class="e" d="M 16.88000106811523 -55.20000076293945 C 13.44000053405762 -55.20000076293945 10.47999954223633 -53.28000259399414 9.840000152587891 -48.79999923706055 L 4.559999465942383 -10.63999938964844 C 4.319999694824219 -8.959999084472656 4.079999923706055 -7.44000244140625 4.079999923706055 -5.760002136230469 C 4.079999923706055 -1.119998931884766 7.280000686645508 0.7999992370605469 10.8799991607666 0.7999992370605469 C 14.31999969482422 0.7999992370605469 17.27999877929688 -1.119998931884766 17.92000007629395 -5.520000457763672 L 23.20000076293945 -43.68000030517578 C 23.44000053405762 -45.44000244140625 23.68000030517578 -46.88000106811523 23.68000030517578 -48.56000137329102 C 23.68000030517578 -53.28000259399414 20.47999954223633 -55.20000076293945 16.88000106811523 -55.20000076293945 M 16.88000106811523 -59.20000076293945 C 19.76992225646973 -59.20000076293945 22.31191062927246 -58.33162307739258 24.23116683959961 -56.68874359130859 C 25.80451202392578 -55.34195709228516 27.68000030517578 -52.83845520019531 27.68000030517578 -48.56000137329102 C 27.68000030517578 -46.8377799987793 27.47696685791016 -45.38692474365234 27.26200103759766 -43.85087966918945 C 27.22954368591309 -43.61895751953125 27.19643402099609 -43.38235473632812 27.16332244873047 -43.13954544067383 L 27.16278839111328 -43.13565826416016 L 27.16225624084473 -43.13176727294922 L 21.88225555419922 -4.971767425537109 L 21.88034439086914 -4.958000183105469 L 21.87834548950195 -4.944244384765625 C 21.4328784942627 -1.881656646728516 20.0895881652832 0.6499862670898438 17.99370002746582 2.377010345458984 C 16.06998825073242 3.962142944335938 13.61011123657227 4.799999237060547 10.8799991607666 4.799999237060547 C 8.000421524047852 4.799999237060547 5.463321685791016 3.939231872558594 3.54295539855957 2.310764312744141 C 1.963167190551758 0.9711112976074219 0.07999992370605469 -1.516544342041016 0.07999992370605469 -5.760002136230469 C 0.07999992370605469 -7.591178894042969 0.3153553009033203 -9.226055145263672 0.5429668426513672 -10.80710220336914 L 0.5990924835205078 -11.19797134399414 L 5.877744674682617 -49.34823608398438 L 5.878955841064453 -49.35696792602539 L 5.880199432373047 -49.36568832397461 C 6.322288513183594 -52.46033477783203 7.661033630371094 -55.01548004150391 9.751678466796875 -56.75490188598633 C 11.67427825927734 -58.35449981689453 14.13921165466309 -59.20000076293945 16.88000106811523 -59.20000076293945 Z"/></g><path class="b" d="M11.047,20.405a.644.644,0,0,1-.654-.661V14.3H6.948a.654.654,0,0,1-.57-.96l4.767-9.432a.615.615,0,0,1,.561-.361.654.654,0,0,1,.656.664V9.721h3.29a.641.641,0,0,1,.548.309.665.665,0,0,1,.035.638l-4.611,9.365A.63.63,0,0,1,11.047,20.405Z" transform="matrix(0.978, 0.208, -0.208, 0.978, 81.555, 59.721)"/><path class="b" d="M11.047,20.405a.644.644,0,0,1-.654-.661V14.3H6.948a.654.654,0,0,1-.57-.96l4.767-9.432a.615.615,0,0,1,.561-.361.654.654,0,0,1,.656.664V9.721h3.29a.641.641,0,0,1,.548.309.665.665,0,0,1,.035.638l-4.611,9.365A.63.63,0,0,1,11.047,20.405Z" transform="matrix(0.978, 0.208, -0.208, 0.978, 84.555, 32.721)"/><rect class="c" width="120" height="120"/></svg>