<svg xmlns="http://www.w3.org/2000/svg" width="120" height="120" viewBox="0 0 120 120"><defs><style>.a{fill:#ffa700;}.b{fill:#ff717f;}.c,.f{fill:#fff;}.d{fill:none;}.e,.f{stroke:none;}</style></defs><g transform="translate(2 89.162)"><path class="e" d="M 42.08335494995117 -10.0611457824707 C 39.57178497314453 -10.0611457824707 37.5299072265625 -10.76205635070801 36.01443481445312 -12.14440631866455 C 34.55382537841797 -13.47672653198242 33.62135696411133 -15.36636638641357 33.16375732421875 -17.92132568359375 L 33.16249465942383 -17.92834663391113 L 33.16128540039062 -17.93537712097168 L 31.54384613037109 -27.35249900817871 L 27.20896530151367 -16.67010498046875 C 26.37081909179688 -14.54088592529297 25.27827644348145 -12.97044372558594 23.86917495727539 -11.86929607391357 C 22.3338451385498 -10.66949653625488 20.4319953918457 -10.0611457824707 18.21646499633789 -10.0611457824707 C 15.59719562530518 -10.0611457824707 13.46917533874512 -10.74898624420166 11.89153575897217 -12.10556602478027 C 10.33923625946045 -13.44034576416016 9.340435981750488 -15.40666580200195 8.922885894775391 -17.94990539550781 L 8.921356201171875 -17.9592170715332 L 8.919916152954102 -17.96853637695312 L 4.491015911102295 -46.63342666625977 L 4.486595630645752 -46.66202545166016 L 4.483016014099121 -46.69073486328125 C 4.465345859527588 -46.83208465576172 4.446385860443115 -46.97987747192383 4.426885604858398 -47.1318473815918 C 4.301795959472656 -48.10711669921875 4.160005569458008 -49.21250534057617 4.160005569458008 -50.07596588134766 C 4.160005569458008 -52.10684585571289 4.798505783081055 -53.84783554077148 6.006485939025879 -55.11072540283203 C 7.263815879821777 -56.42520523071289 9.039825439453125 -57.1200065612793 11.1425256729126 -57.1200065612793 C 15.29044914245605 -57.1200065612793 17.92052268981934 -54.72068786621094 18.35947418212891 -50.53736877441406 L 20.18430709838867 -34.27979278564453 L 26.98857498168945 -51.83223342895508 C 27.56838417053223 -53.38809204101562 28.3216724395752 -54.56309127807617 29.29107666015625 -55.42377471923828 C 30.55877494812012 -56.54931640625 32.17226409912109 -57.1200065612793 34.08671569824219 -57.1200065612793 C 36.27829742431641 -57.1200065612793 38.0204963684082 -56.47133636474609 39.26492691040039 -55.1920051574707 C 40.33474349975586 -54.09218597412109 40.99843215942383 -52.57453918457031 41.2938346862793 -50.55270004272461 L 43.75436782836914 -34.24642944335938 L 49.8525276184082 -51.71919631958008 L 49.85925674438477 -51.73848724365234 L 49.86638641357422 -51.75763702392578 C 51.1530876159668 -55.21561431884766 53.63195419311523 -57.1200065612793 56.84637451171875 -57.1200065612793 C 59.07623672485352 -57.1200065612793 60.83485412597656 -56.48604583740234 62.0733642578125 -55.23572540283203 C 63.22184753417969 -54.07631683349609 63.82889556884766 -52.44099807739258 63.82889556884766 -50.50655746459961 C 63.82889556884766 -48.99595642089844 63.50224685668945 -47.39754867553711 62.88417434692383 -45.8834228515625 L 51.1419792175293 -16.37419891357422 C 49.4945068359375 -12.12642478942871 46.53121566772461 -10.0611457824707 42.08335494995117 -10.0611457824707 Z"/><path class="f" d="M 11.14252471923828 -55.11999893188477 C 7.943855285644531 -55.11999893188477 6.159999847412109 -53.090087890625 6.159999847412109 -50.07596588134766 C 6.159999847412109 -49.21478652954102 6.344535827636719 -47.92301940917969 6.467555999755859 -46.93881988525391 L 10.89646911621094 -18.27393341064453 C 11.57311248779297 -14.1525764465332 13.91059112548828 -12.06115341186523 18.21646881103516 -12.06115341186523 C 21.84571075439453 -12.06115341186523 23.9986457824707 -13.96804428100586 25.35192489624023 -17.41275405883789 L 32.2413330078125 -34.39024353027344 L 32.3643684387207 -34.39024353027344 L 35.13242340087891 -18.27393341064453 C 35.87057876586914 -14.1525764465332 38.02352142333984 -12.06115341186523 42.08334350585938 -12.06115341186523 C 45.34351348876953 -12.06115341186523 47.80402374267578 -13.29140853881836 49.28032302856445 -17.10518646240234 L 61.02922439575195 -46.63125610351562 C 61.58283615112305 -47.98453140258789 61.82889175415039 -49.33780670166016 61.82889175415039 -50.50655364990234 C 61.82889175415039 -53.21311187744141 60.35258865356445 -55.11999893188477 56.84637832641602 -55.11999893188477 C 54.44738006591797 -55.11999893188477 52.72503662109375 -53.70520782470703 51.74082183837891 -51.06016540527344 L 43.06755828857422 -26.20906448364258 L 42.94452285766602 -26.20906448364258 L 39.31527709960938 -50.260498046875 C 38.88470077514648 -53.21311187744141 37.53142547607422 -55.11999893188477 34.08672332763672 -55.11999893188477 C 31.01108932495117 -55.11999893188477 29.65781402587891 -53.27462005615234 28.85814666748047 -51.12167358398438 L 19.20066833496094 -26.20906448364258 L 19.07764434814453 -26.20906448364258 L 16.37108993530273 -50.3220100402832 C 16.06353378295898 -53.27462005615234 14.46420288085938 -55.11999893188477 11.14252471923828 -55.11999893188477 M 11.14252471923828 -59.11999893188477 C 14.48308944702148 -59.11999893188477 16.53958892822266 -57.80134201049805 17.6765251159668 -56.69512939453125 C 19.18862533569336 -55.22390365600586 20.08735275268555 -53.22458648681641 20.34786224365234 -50.75268173217773 L 21.26333999633789 -42.59662246704102 L 25.11903762817383 -52.54285430908203 C 25.81535720825195 -54.40673065185547 26.74591064453125 -55.83857727050781 27.96322250366211 -56.91937637329102 C 29.60791397094727 -58.37960052490234 31.66814422607422 -59.11999893188477 34.08672332763672 -59.11999893188477 C 36.83877944946289 -59.11999893188477 39.06332397460938 -58.26762008666992 40.69855499267578 -56.58653259277344 C 42.07119369506836 -55.1754035949707 42.91301727294922 -53.29814147949219 43.27191925048828 -50.84794235229492 L 44.52706909179688 -42.52991104125977 L 47.96422576904297 -52.37823104858398 L 47.97769165039062 -52.41680908203125 L 47.99193572998047 -52.45510864257812 C 48.74026870727539 -54.46620941162109 49.84008026123047 -56.06352996826172 51.26084518432617 -57.20269775390625 C 52.82520294189453 -58.45700836181641 54.75664520263672 -59.11999893188477 56.84637832641602 -59.11999893188477 C 60.31315612792969 -59.11999893188477 62.37503433227539 -57.77312088012695 63.49426651000977 -56.64321899414062 C 65.02159118652344 -55.10135269165039 65.82888793945312 -52.97932052612305 65.82888793945312 -50.50655364990234 C 65.82888793945312 -48.74203872680664 65.45212554931641 -46.88534545898438 64.73925018310547 -45.13592529296875 L 53.00369644165039 -15.64340209960938 C 51.99090957641602 -13.03572463989258 50.48583984375 -11.06942367553711 48.52999114990234 -9.798744201660156 C 46.73031234741211 -8.629520416259766 44.62158966064453 -8.061153411865234 42.08334350585938 -8.061153411865234 C 39.05742263793945 -8.061153411865234 36.56208038330078 -8.937820434570312 34.66660308837891 -10.66679763793945 C 32.89368057250977 -12.28398895263672 31.72568893432617 -14.60613250732422 31.1950798034668 -17.56873321533203 L 31.19256973266602 -17.5827751159668 L 31.19014739990234 -17.59683227539062 L 30.75991439819336 -20.10175704956055 L 29.06636428833008 -15.92836761474609 C 28.09418487548828 -13.46226119995117 26.79684066772461 -11.61889266967773 25.10066986083984 -10.29341125488281 C 23.2052116394043 -8.812187194824219 20.88903427124023 -8.061153411865234 18.21646881103516 -8.061153411865234 C 15.10507965087891 -8.061153411865234 12.53835678100586 -8.911674499511719 10.58756637573242 -10.5890998840332 C 8.669166564941406 -12.23867797851562 7.445091247558594 -14.60619735717773 6.949314117431641 -17.62588882446289 L 6.946258544921875 -17.64450836181641 L 6.943378448486328 -17.66315460205078 L 2.51446533203125 -46.32804107666016 L 2.505622863769531 -46.38525390625 L 2.498443603515625 -46.44268798828125 C 2.481025695800781 -46.58205413818359 2.462326049804688 -46.72775268554688 2.443115234375 -46.87758636474609 C 2.310409545898438 -47.91218566894531 2.160003662109375 -49.08481979370117 2.160003662109375 -50.07596588134766 C 2.160003662109375 -52.63185501098633 2.990325927734375 -54.85088729858398 4.561191558837891 -56.4931640625 C 6.204967498779297 -58.21165466308594 8.480747222900391 -59.11999893188477 11.14252471923828 -59.11999893188477 Z"/></g><g class="a" transform="translate(38.684 109.775)"><path class="e" d="M 19.93209648132324 -9.974762916564941 C 17.97616577148438 -9.974762916564941 16.26592636108398 -10.54834270477295 14.98626613616943 -11.6334924697876 C 13.94488620758057 -12.51658248901367 12.70352649688721 -14.16772270202637 12.70352649688721 -17.01880264282227 C 12.70352649688721 -18.0661735534668 12.81001567840576 -19.02340316772461 12.91299629211426 -19.94911193847656 C 12.94975566864014 -20.27951240539551 12.98775577545166 -20.62116241455078 13.02009582519531 -20.9606819152832 L 13.02430629730225 -21.00494194030762 L 13.03048610687256 -21.04896354675293 L 16.09408378601074 -42.8840217590332 L 9.659496307373047 -42.8840217590332 C 5.813045978546143 -42.8840217590332 2.799996137619019 -45.84303283691406 2.799996137619019 -49.62050247192383 C 2.799996137619019 -51.4637336730957 3.510476112365723 -53.1893310546875 4.800576210021973 -54.47942352294922 C 6.0906662940979 -55.76951217651367 7.816266059875488 -56.48000335693359 9.659496307373047 -56.48000335693359 L 38.57041549682617 -56.48000335693359 C 40.4165153503418 -56.48000335693359 42.13561630249023 -55.76505279541016 43.41103744506836 -54.46685409545898 C 44.67325592041016 -53.18208312988281 45.3683967590332 -51.46095275878906 45.3683967590332 -49.62050247192383 C 45.3683967590332 -47.77434158325195 44.66428756713867 -46.06609344482422 43.38577651977539 -44.8104133605957 C 42.12094497680664 -43.56816101074219 40.41081619262695 -42.8840217590332 38.57041549682617 -42.8840217590332 L 30.96317672729492 -42.8840217590332 L 27.32638549804688 -16.56054306030273 L 27.32297515869141 -16.53587341308594 L 27.31895637512207 -16.51129341125488 C 26.98021697998047 -14.44117259979248 26.06481552124023 -12.7402229309082 24.67171669006348 -11.59231281280518 C 23.38748550415039 -10.53410243988037 21.7485466003418 -9.974762916564941 19.93209648132324 -9.974762916564941 Z"/><path class="f" d="M 9.659496307373047 -54.47999954223633 C 6.952945709228516 -54.47999954223633 4.799995422363281 -52.32705688476562 4.799995422363281 -49.62049865722656 C 4.799995422363281 -46.91394805908203 6.952945709228516 -44.88402938842773 9.659496307373047 -44.88402938842773 L 18.39428520202637 -44.88402938842773 L 15.01108551025391 -20.77106857299805 C 14.88806533813477 -19.47930908203125 14.70352554321289 -18.31056976318359 14.70352554321289 -17.018798828125 C 14.70352554321289 -13.45106887817383 17.16403579711914 -11.97475814819336 19.93209648132324 -11.97475814819336 C 22.51562690734863 -11.97475814819336 24.79159545898438 -13.45106887817383 25.34520530700684 -16.83425903320312 L 29.22049522399902 -44.88402938842773 L 38.57040405273438 -44.88402938842773 C 41.2769660949707 -44.88402938842773 43.3683967590332 -46.91394805908203 43.3683967590332 -49.62049865722656 C 43.3683967590332 -52.32705688476562 41.2769660949707 -54.47999954223633 38.57040405273438 -54.47999954223633 L 9.659496307373047 -54.47999954223633 M 9.659496307373047 -58.47999954223633 L 38.57040405273438 -58.47999954223633 C 40.95742797851562 -58.47999954223633 43.18319702148438 -57.55254745483398 44.83770751953125 -55.86849975585938 C 46.46964645385742 -54.20742034912109 47.3683967590332 -51.98849868774414 47.3683967590332 -49.62049865722656 C 47.3683967590332 -44.72153854370117 43.50385665893555 -40.88402938842773 38.57040405273438 -40.88402938842773 L 32.70585632324219 -40.88402938842773 L 29.30756568908691 -16.28682708740234 L 29.30074691772461 -16.23748016357422 L 29.29270553588867 -16.18830871582031 C 28.8745059967041 -13.63261795043945 27.71638679504395 -11.50962066650391 25.94356536865234 -10.04880905151367 C 24.29690551757812 -8.691947937011719 22.21816635131836 -7.974758148193359 19.93209648132324 -7.974758148193359 C 17.49608612060547 -7.974758148193359 15.33855438232422 -8.712459564208984 13.6927375793457 -10.10811996459961 C 12.71744537353516 -10.9351692199707 11.96415710449219 -11.959228515625 11.45379638671875 -13.15184783935547 C 10.95595550537109 -14.31522750854492 10.70352554321289 -15.61626052856445 10.70352554321289 -17.018798828125 C 10.70352554321289 -18.17708969116211 10.81624603271484 -19.19035720825195 10.92526626586914 -20.17025756835938 C 10.96280670166016 -20.50775909423828 10.99827575683594 -20.8265495300293 11.02910614013672 -21.15028762817383 L 11.03753662109375 -21.23880004882812 L 11.04988479614258 -21.32684707641602 L 13.79388046264648 -40.88402938842773 L 9.659496307373047 -40.88402938842773 C 7.300994873046875 -40.88402938842773 5.09124755859375 -41.7629280090332 3.43731689453125 -43.35882949829102 C 1.736614227294922 -44.99985885620117 0.7999954223632812 -47.22362899780273 0.7999954223632812 -49.62049865722656 C 0.7999954223632812 -51.99794769287109 1.718517303466797 -54.22579956054688 3.386367797851562 -55.89363861083984 C 5.054206848144531 -57.56147766113281 7.282047271728516 -58.47999954223633 9.659496307373047 -58.47999954223633 Z"/></g><g class="b" transform="translate(74.762 97.708)"><path class="e" d="M 9.308568000793457 -9.974762916564941 C 7.352638244628906 -9.974762916564941 5.642397880554199 -10.54834270477295 4.362738132476807 -11.6334924697876 C 3.32135796546936 -12.51658248901367 2.079998016357422 -14.16772270202637 2.079998016357422 -17.01880264282227 C 2.079998016357422 -18.34977340698242 2.247578144073486 -19.51385307312012 2.425008058547974 -20.74628257751465 L 2.469177961349487 -21.05391311645508 L 6.527116775512695 -49.76693344116211 C 6.79719352722168 -51.83021926879883 7.670960426330566 -53.55243682861328 9.054417610168457 -54.74774169921875 C 10.36604785919189 -55.8809928894043 12.04923820495605 -56.48000335693359 13.92201805114746 -56.48000335693359 L 32.74486923217773 -56.48000335693359 C 36.49328994750977 -56.48000335693359 39.5428466796875 -53.4304313659668 39.5428466796875 -49.68201446533203 C 39.5428466796875 -45.93359375 36.49328994750977 -42.8840217590332 32.74486923217773 -42.8840217590332 L 20.40729522705078 -42.8840217590332 L 20.08457946777344 -40.48671340942383 L 27.51629829406738 -40.48671340942383 C 31.26471900939941 -40.48671340942383 34.31427764892578 -37.43714141845703 34.31427764892578 -33.68872451782227 C 34.31427764892578 -29.9403018951416 31.26471900939941 -26.89074325561523 27.51629829406738 -26.89074325561523 L 18.17861938476562 -26.89074325561523 L 16.70157814025879 -16.55142211914062 L 16.70121765136719 -16.54890251159668 L 16.70084762573242 -16.54638290405273 C 16.39744758605957 -14.46048259735107 15.49612808227539 -12.74739265441895 14.09431838989258 -11.59231281280518 C 12.81008815765381 -10.53410243988037 11.155198097229 -9.974762916564941 9.308568000793457 -9.974762916564941 Z"/><path class="f" d="M 13.92201614379883 -54.47999954223633 C 11.21545600891113 -54.47999954223633 8.939495086669922 -52.81916046142578 8.508907318115234 -49.49747848510742 L 4.449077606201172 -20.77106857299805 C 4.264537811279297 -19.47930908203125 4.080005645751953 -18.31056976318359 4.080005645751953 -17.018798828125 C 4.080005645751953 -13.45106887817383 6.540504455566406 -11.97475814819336 9.308567047119141 -11.97475814819336 C 11.95360565185547 -11.97475814819336 14.22957611083984 -13.45106887817383 14.72167587280273 -16.83425903320312 L 16.44402694702148 -28.89073944091797 L 27.51629638671875 -28.89073944091797 C 30.16133499145508 -28.89073944091797 32.31427764892578 -31.04367828369141 32.31427764892578 -33.68872833251953 C 32.31427764892578 -36.33377075195312 30.16133499145508 -38.48670959472656 27.51629638671875 -38.48670959472656 L 17.79730606079102 -38.48670959472656 L 18.65848541259766 -44.88402938842773 L 32.74486541748047 -44.88402938842773 C 35.38990783691406 -44.88402938842773 37.5428466796875 -47.03696823120117 37.5428466796875 -49.6820068359375 C 37.5428466796875 -52.32705688476562 35.38990783691406 -54.47999954223633 32.74486541748047 -54.47999954223633 L 13.92201614379883 -54.47999954223633 M 13.92201614379883 -58.47999954223633 L 32.74486541748047 -58.47999954223633 C 37.59608459472656 -58.47999954223633 41.5428466796875 -54.53323745727539 41.5428466796875 -49.6820068359375 C 41.5428466796875 -44.83078765869141 37.59608459472656 -40.88402938842773 32.74486541748047 -40.88402938842773 L 32.57395172119141 -40.88402938842773 C 34.83458709716797 -39.29015350341797 36.31427764892578 -36.65885925292969 36.31427764892578 -33.68872833251953 C 36.31427764892578 -28.83749771118164 32.36751556396484 -24.89073944091797 27.51629638671875 -24.89073944091797 L 19.91320991516113 -24.89073944091797 L 18.68147659301758 -16.26857757568359 L 18.68075561523438 -16.2635383605957 L 18.68002700805664 -16.25849914550781 C 17.94806671142578 -11.226318359375 14.26955604553223 -7.974758148193359 9.308567047119141 -7.974758148193359 C 6.872554779052734 -7.974758148193359 4.71502685546875 -8.712459564208984 3.069206237792969 -10.10811996459961 C 2.093917846679688 -10.9351692199707 1.340625762939453 -11.959228515625 0.8302764892578125 -13.15185928344727 C 0.3324356079101562 -14.31523895263672 0.08000564575195312 -15.61626052856445 0.08000564575195312 -17.018798828125 C 0.08000564575195312 -18.49305725097656 0.265777587890625 -19.78348922729492 0.4454345703125 -21.03142929077148 L 0.4892425537109375 -21.33652877807617 L 4.54534912109375 -50.03659820556641 C 4.881668090820312 -52.58985137939453 5.988384246826172 -54.74179077148438 7.746864318847656 -56.2611198425293 C 9.426956176757812 -57.71271896362305 11.56229591369629 -58.47999954223633 13.92201614379883 -58.47999954223633 Z"/></g><path class="c" d="M11.047,20.405a.644.644,0,0,1-.654-.661V14.3H6.948a.654.654,0,0,1-.57-.96l4.767-9.432a.615.615,0,0,1,.561-.361.654.654,0,0,1,.656.664V9.721h3.29a.641.641,0,0,1,.548.309.665.665,0,0,1,.035.638l-4.611,9.365A.63.63,0,0,1,11.047,20.405Z" transform="matrix(0.978, 0.208, -0.208, 0.978, 69.555, 16.721)"/><path class="c" d="M11.047,20.405a.644.644,0,0,1-.654-.661V14.3H6.948a.654.654,0,0,1-.57-.96l4.767-9.432a.615.615,0,0,1,.561-.361.654.654,0,0,1,.656.664V9.721h3.29a.641.641,0,0,1,.548.309.665.665,0,0,1,.035.638l-4.611,9.365A.63.63,0,0,1,11.047,20.405Z" transform="matrix(0.978, 0.208, -0.208, 0.978, 18.555, 80.721)"/><path class="c" d="M11.047,20.405a.644.644,0,0,1-.654-.661V14.3H6.948a.654.654,0,0,1-.57-.96l4.767-9.432a.615.615,0,0,1,.561-.361.654.654,0,0,1,.656.664V9.721h3.29a.641.641,0,0,1,.548.309.665.665,0,0,1,.035.638l-4.611,9.365A.63.63,0,0,1,11.047,20.405Z" transform="matrix(0.978, 0.208, -0.208, 0.978, 98.555, 71.721)"/><rect class="d" width="120" height="120"/></svg>