<svg xmlns="http://www.w3.org/2000/svg" width="120" height="120" viewBox="0 0 120 120"><defs><style>.a{fill:#ff717f;}.b,.e{fill:#fff;}.c{fill:none;}.d,.e{stroke:none;}</style></defs><g transform="translate(7 86.12)"><path class="d" d="M 43.59999847412109 2.79999828338623 C 40.49806976318359 2.79999828338623 37.95048904418945 1.373168230056763 36.23268127441406 -1.326251745223999 L 36.22972106933594 -1.330891728401184 L 36.22679138183594 -1.335561752319336 L 21.9390869140625 -24.06297874450684 L 19.26054000854492 -5.001691818237305 L 19.25872993469238 -4.988771915435791 L 19.25674057006836 -4.975891590118408 C 18.88149070739746 -2.536771774291992 17.82900047302246 -0.523661732673645 16.21303939819336 0.8457882404327393 C 14.70446968078613 2.124248266220093 12.77733993530273 2.79999828338623 10.63999938964844 2.79999828338623 C 8.11536979675293 2.79999828338623 5.765059947967529 1.757188200950623 4.191709995269775 -0.06104175373911858 C 2.53110408782959 -1.980109691619873 1.845140695571899 -4.615243434906006 2.259952068328857 -7.481870174407959 L 8.099200248718262 -49.31647109985352 C 8.430099487304688 -51.72736358642578 9.47344970703125 -53.74088287353516 11.11581993103027 -55.13482284545898 C 12.64597988128662 -56.43354034423828 14.5838794708252 -57.12000274658203 16.71999931335449 -57.12000274658203 C 19.73136711120605 -57.12000274658203 22.27420234680176 -55.78425216674805 23.69949913024902 -53.4544677734375 L 38.37743377685547 -30.16993141174316 L 41.05932998657227 -49.31741333007812 C 41.39091110229492 -51.72494888305664 42.44646072387695 -53.73822021484375 44.11212158203125 -55.14015197753906 C 45.62902069091797 -56.4168815612793 47.60639953613281 -57.12000274658203 49.68000030517578 -57.12000274658203 C 52.20462799072266 -57.12000274658203 54.55493927001953 -56.07719039916992 56.12828826904297 -54.25897216796875 C 57.78889465332031 -52.33989334106445 58.47485733032227 -49.70476150512695 58.0600471496582 -46.838134765625 L 52.22129821777344 -5.007083415985107 C 51.89048767089844 -2.559459209442139 50.84466934204102 -0.5337073802947998 49.19668960571289 0.8511582612991333 C 47.67950057983398 2.126098155975342 45.74420166015625 2.79999828338623 43.59999847412109 2.79999828338623 Z"/><path class="e" d="M 16.72000122070312 -55.12000274658203 C 13.52000045776367 -55.12000274658203 10.63999938964844 -53.12000274658203 10.07999801635742 -49.04000091552734 L 4.240001678466797 -7.200000762939453 C 3.520000457763672 -2.240001678466797 6.799999237060547 0.7999992370605469 10.63999938964844 0.7999992370605469 C 13.84000015258789 0.7999992370605469 16.63999938964844 -1.120002746582031 17.27999877929688 -5.280002593994141 L 20.72000122070312 -29.76000213623047 L 37.91999816894531 -2.400001525878906 C 39.04000091552734 -0.6400032043457031 40.79999923706055 0.7999992370605469 43.59999847412109 0.7999992370605469 C 46.79999923706055 0.7999992370605469 49.68000030517578 -1.120002746582031 50.23999786376953 -5.280002593994141 L 56.08000183105469 -47.12000274658203 C 56.79999923706055 -52.08000183105469 53.52000045776367 -55.12000274658203 49.68000030517578 -55.12000274658203 C 46.55999755859375 -55.12000274658203 43.59999847412109 -53.12000274658203 43.04000091552734 -49.04000091552734 L 39.59999847412109 -24.48000144958496 L 22 -52.40000152587891 C 20.88000106811523 -54.2400016784668 18.88000106811523 -55.12000274658203 16.72000122070312 -55.12000274658203 M 16.72000122070312 -59.12000274658203 C 18.42753219604492 -59.12000274658203 20.08840942382812 -58.74500274658203 21.52307891845703 -58.03555679321289 C 23.13063430786133 -57.2406120300293 24.46970748901367 -56.02236175537109 25.39779281616211 -54.51085662841797 L 37.15487289428711 -35.85985565185547 L 39.07818603515625 -49.59142303466797 C 39.47860717773438 -52.49689865112305 40.77386474609375 -54.94457626342773 42.82424163818359 -56.67031097412109 C 44.70112228393555 -58.2500114440918 47.13587951660156 -59.12000274658203 49.68000030517578 -59.12000274658203 C 52.78561019897461 -59.12000274658203 55.68715667724609 -57.82522583007812 57.64066696166992 -55.56765747070312 C 59.685546875 -53.20451354980469 60.53756332397461 -50.00542449951172 60.04036331176758 -46.55817794799805 L 54.20270919799805 -4.735000610351562 C 53.80355453491211 -1.788040161132812 52.5175895690918 0.672882080078125 50.48336791992188 2.382308959960938 C 48.60118865966797 3.963977813720703 46.22095489501953 4.799999237060547 43.59999847412109 4.799999237060547 C 41.53777694702148 4.799999237060547 39.65814208984375 4.279865264892578 38.01329040527344 3.254043579101562 C 36.65290832519531 2.405632019042969 35.48613357543945 1.225864410400391 34.54535675048828 -0.25250244140625 L 34.53944396972656 -0.2617912292480469 L 34.53357696533203 -0.2711143493652344 L 23.15816879272461 -18.36594772338867 L 21.2410774230957 -4.723381042480469 L 21.23745727539062 -4.697547912597656 L 21.23348999023438 -4.671768188476562 C 20.78390121459961 -1.749481201171875 19.49498748779297 0.686065673828125 17.50608825683594 2.371574401855469 C 15.63144302368164 3.96026611328125 13.25718688964844 4.799999237060547 10.63999938964844 4.799999237060547 C 7.534389495849609 4.799999237060547 4.632843017578125 3.505222320556641 2.679332733154297 1.247653961181641 C 0.6344528198242188 -1.115489959716797 -0.2175636291503906 -4.3145751953125 0.2796363830566406 -7.761825561523438 L 6.118400573730469 -49.59295654296875 C 6.519111633300781 -52.49982452392578 7.799575805664062 -54.94345092773438 9.821632385253906 -56.6596565246582 C 11.69097900390625 -58.24623489379883 14.14085388183594 -59.12000274658203 16.72000122070312 -59.12000274658203 Z"/></g><g class="a" transform="translate(55 86.28)"><path class="d" d="M 29.04000091552734 2.720001220703125 C 25.38871192932129 2.720001220703125 21.95064163208008 2.108971118927002 18.8212718963623 0.903901219367981 C 15.73217105865479 -0.2856787741184235 12.99403095245361 -2.032768726348877 10.6829309463501 -4.288848876953125 C 8.379550933837891 -6.537388801574707 6.547711372375488 -9.245388984680176 5.238311290740967 -12.33763885498047 C 3.917601108551025 -15.45659923553467 3.151941299438477 -18.91535949707031 2.962611198425293 -22.61785888671875 C 2.455161333084106 -32.53628921508789 5.747101306915283 -41.99583053588867 11.99437141418457 -48.57088851928711 C 14.59936141967773 -51.31256866455078 17.62134170532227 -53.45355987548828 20.97637176513672 -54.93439865112305 C 24.50264167785645 -56.49082946777344 28.31919097900391 -57.27999877929688 32.31999969482422 -57.27999877929688 C 35.97114944458008 -57.27999877929688 39.41065979003906 -56.66420745849609 42.54300308227539 -55.44974899291992 C 45.63077163696289 -54.25255966186523 48.3686408996582 -52.4956169128418 50.68054962158203 -50.22774887084961 C 52.98221969604492 -47.96991729736328 54.81312942504883 -45.25321960449219 56.12242126464844 -42.15312957763672 C 57.44207763671875 -39.02848434448242 58.20741271972656 -35.56740188598633 58.39716339111328 -31.86656761169434 C 58.67154312133789 -26.8969783782959 58.03733062744141 -22.10312271118164 56.51216125488281 -17.61766815185547 C 54.98720169067383 -13.13283920288086 52.66270065307617 -9.219408988952637 49.60322952270508 -5.98607873916626 C 47.00263214111328 -3.237688779830933 43.96210098266602 -1.09424877166748 40.56612014770508 0.3847212195396423 C 37.00799179077148 1.934301257133484 33.13004302978516 2.720001220703125 29.04000091552734 2.720001220703125 Z M 31.44000053405762 -40.31999969482422 C 28.48725128173828 -40.31999969482422 26.36714172363281 -38.73484039306641 25.10854148864746 -37.40504837036133 C 22.28501129150391 -34.42181777954102 20.69422149658203 -29.60331916809082 20.95698165893555 -24.82992935180664 L 20.95761108398438 -24.81839942932129 L 20.95811080932617 -24.80686950683594 C 21.09410095214844 -21.67907905578613 22.0771312713623 -18.90099906921387 23.72610092163086 -16.98438835144043 C 25.31582069396973 -15.13665866851807 27.42997169494629 -14.15999889373779 29.84000205993652 -14.15999889373779 C 32.84403228759766 -14.15999889373779 34.98916244506836 -15.76021862030029 36.25971984863281 -17.1026496887207 C 39.07755279541016 -20.07984924316406 40.6651725769043 -24.88773918151855 40.40302276611328 -29.65006828308105 L 40.40238952636719 -29.66159820556641 L 40.40188980102539 -29.67312812805176 C 40.26578140258789 -32.8035774230957 39.28039932250977 -35.58025741577148 37.62726974487305 -37.49169921875 C 36.02701950073242 -39.34198760986328 33.88750076293945 -40.31999969482422 31.44000053405762 -40.31999969482422 Z"/><path class="e" d="M 32.31999969482422 -55.27999877929688 C 15.28000259399414 -55.27999877929688 4.080001831054688 -39.91999816894531 4.960002899169922 -22.71999931335449 C 5.680000305175781 -8.639999389648438 15.20000076293945 0.720001220703125 29.04000091552734 0.720001220703125 C 46.40000152587891 0.720001220703125 57.36000061035156 -14.39999771118164 56.40000152587891 -31.7599983215332 C 55.68000030517578 -45.84000015258789 46.15999984741211 -55.27999877929688 32.31999969482422 -55.27999877929688 M 29.84000205993652 -12.15999984741211 C 23.68000030517578 -12.15999984741211 19.28000259399414 -17.36000061035156 18.96000289916992 -24.71999931335449 C 18.47999954223633 -33.43999862670898 23.60000228881836 -42.31999969482422 31.44000053405762 -42.31999969482422 C 37.68000030517578 -42.31999969482422 42.08000183105469 -37.11999893188477 42.40000152587891 -29.7599983215332 C 42.88000106811523 -21.03999710083008 37.76000213623047 -12.15999984741211 29.84000205993652 -12.15999984741211 M 32.31999969482422 -59.27999877929688 C 36.21941375732422 -59.27999877929688 39.90217971801758 -58.61870956420898 43.26599884033203 -57.31448745727539 C 46.60840225219727 -56.01857757568359 49.57423400878906 -54.11460876464844 52.08110046386719 -51.65548706054688 C 54.57254409790039 -49.21149826049805 56.5521240234375 -46.2762451171875 57.96484375 -42.93125534057617 C 59.37484741210938 -39.59270477294922 60.19221115112305 -35.90612030029297 60.39429473876953 -31.97368049621582 C 60.68244552612305 -26.74827766418457 60.01338195800781 -21.70195388793945 58.40568923950195 -16.97381973266602 C 56.78743362426758 -12.2146110534668 54.31462478637695 -8.055309295654297 51.05596923828125 -4.611465454101562 C 48.26937866210938 -1.666519165039062 45.00875854492188 0.6313667297363281 41.36467742919922 2.218379974365234 C 37.5531005859375 3.878334045410156 33.40647888183594 4.720001220703125 29.04000091552734 4.720001220703125 C 25.14201354980469 4.720001220703125 21.46212387084961 4.064022064208984 18.10254669189453 2.770290374755859 C 14.7586784362793 1.482612609863281 11.79231262207031 -0.410919189453125 9.285858154296875 -2.857700347900391 C 6.791511535644531 -5.292655944824219 4.810089111328125 -8.21978759765625 3.396621704101562 -11.55778884887695 C 1.98455810546875 -14.89246368408203 1.166511535644531 -18.57925415039062 0.9652252197265625 -22.51572036743164 C 0.4298896789550781 -32.97899627685547 3.921390533447266 -42.97789764404297 10.54447937011719 -49.9484977722168 C 13.33252334594727 -52.88284301757812 16.57061386108398 -55.17594146728516 20.16877746582031 -56.76409912109375 C 23.95108032226562 -58.43353271484375 28.03933334350586 -59.27999877929688 32.31999969482422 -59.27999877929688 Z M 29.84000205993652 -16.15999984741211 C 31.68054580688477 -16.15999984741211 33.35174560546875 -16.939697265625 34.80716705322266 -18.47744369506836 C 35.97940063476562 -19.71597671508789 36.93596649169922 -21.38184356689453 37.57345581054688 -23.29494285583496 C 38.23393249511719 -25.27702140808105 38.52184295654297 -27.43657684326172 38.40604400634766 -29.5401439666748 L 38.40477752685547 -29.56318855285645 L 38.40377807617188 -29.58625411987305 C 38.28715515136719 -32.2684211730957 37.47416687011719 -34.61133193969727 36.11454772949219 -36.18338775634766 C 34.88838958740234 -37.60114288330078 33.31564331054688 -38.31999969482422 31.44000053405762 -38.31999969482422 C 29.64062309265137 -38.31999969482422 27.99912261962891 -37.54962158203125 26.56108856201172 -36.03025436401367 C 25.38827896118164 -34.79109954833984 24.43026733398438 -33.12223052978516 23.79063415527344 -31.20407676696777 C 23.12721252441406 -29.21454238891602 22.837890625 -27.04841041564941 22.95395660400391 -24.93985366821289 L 22.95522308349609 -24.91680908203125 L 22.95622253417969 -24.89374351501465 C 23.07281112670898 -22.21235275268555 23.88464736938477 -19.86667633056641 25.24220275878906 -18.28878784179688 C 26.45751190185547 -16.876220703125 28.00443267822266 -16.15999984741211 29.84000205993652 -16.15999984741211 Z"/></g><path class="b" d="M11.047,20.405a.644.644,0,0,1-.654-.661V14.3H6.948a.654.654,0,0,1-.57-.96l4.767-9.432a.615.615,0,0,1,.561-.361.654.654,0,0,1,.656.664V9.721h3.29a.641.641,0,0,1,.548.309.665.665,0,0,1,.035.638l-4.611,9.365A.63.63,0,0,1,11.047,20.405Z" transform="matrix(0.978, 0.208, -0.208, 0.978, 11.555, 45.721)"/><path class="b" d="M11.047,20.405a.644.644,0,0,1-.654-.661V14.3H6.948a.654.654,0,0,1-.57-.96l4.767-9.432a.615.615,0,0,1,.561-.361.654.654,0,0,1,.656.664V9.721h3.29a.641.641,0,0,1,.548.309.665.665,0,0,1,.035.638l-4.611,9.365A.63.63,0,0,1,11.047,20.405Z" transform="matrix(0.978, 0.208, -0.208, 0.978, 96.555, 45.721)"/><rect class="c" width="120" height="120"/></svg>