<svg xmlns="http://www.w3.org/2000/svg" width="120" height="120" viewBox="0 0 120 120"><defs><style>.a{fill:#65b1ef;}.b,.e{fill:#fff;}.c{fill:none;}.d,.e{stroke:none;}</style></defs><g transform="translate(9 87)"><path class="d" d="M 29.04000091552734 2.720001220703125 C 25.38871192932129 2.720001220703125 21.95064163208008 2.108971118927002 18.8212718963623 0.903901219367981 C 15.73217105865479 -0.2856787741184235 12.99403095245361 -2.032768726348877 10.6829309463501 -4.288848876953125 C 8.379550933837891 -6.537388801574707 6.547711372375488 -9.245388984680176 5.238311290740967 -12.33763885498047 C 3.917601108551025 -15.45659923553467 3.151941299438477 -18.91535949707031 2.962611198425293 -22.61785888671875 C 2.455161333084106 -32.53628921508789 5.747101306915283 -41.99583053588867 11.99437141418457 -48.57088851928711 C 14.59936141967773 -51.31256866455078 17.62134170532227 -53.45355987548828 20.97637176513672 -54.93439865112305 C 24.50264167785645 -56.49082946777344 28.31919097900391 -57.27999877929688 32.31999969482422 -57.27999877929688 C 35.97114944458008 -57.27999877929688 39.41065979003906 -56.66420745849609 42.54300308227539 -55.44974899291992 C 45.63077163696289 -54.25255966186523 48.3686408996582 -52.4956169128418 50.68054962158203 -50.22774887084961 C 52.98221969604492 -47.96991729736328 54.81312942504883 -45.25321960449219 56.12242126464844 -42.15312957763672 C 57.44207763671875 -39.02848434448242 58.20741271972656 -35.56740188598633 58.39716339111328 -31.86656761169434 C 58.67154312133789 -26.8969783782959 58.03733062744141 -22.10312271118164 56.51216125488281 -17.61766815185547 C 54.98720169067383 -13.13283920288086 52.66270065307617 -9.219408988952637 49.60322952270508 -5.98607873916626 C 47.00263214111328 -3.237688779830933 43.96210098266602 -1.09424877166748 40.56612014770508 0.3847212195396423 C 37.00799179077148 1.934301257133484 33.13004302978516 2.720001220703125 29.04000091552734 2.720001220703125 Z M 31.44000053405762 -40.31999969482422 C 28.48725128173828 -40.31999969482422 26.36714172363281 -38.73484039306641 25.10854148864746 -37.40504837036133 C 22.28501129150391 -34.42181777954102 20.69422149658203 -29.60331916809082 20.95698165893555 -24.82992935180664 L 20.95761108398438 -24.81839942932129 L 20.95811080932617 -24.80686950683594 C 21.09410095214844 -21.67907905578613 22.0771312713623 -18.90099906921387 23.72610092163086 -16.98438835144043 C 25.31582069396973 -15.13665866851807 27.42997169494629 -14.15999889373779 29.84000205993652 -14.15999889373779 C 32.84403228759766 -14.15999889373779 34.98916244506836 -15.76021862030029 36.25971984863281 -17.1026496887207 C 39.07755279541016 -20.07984924316406 40.6651725769043 -24.88773918151855 40.40302276611328 -29.65006828308105 L 40.40238952636719 -29.66159820556641 L 40.40188980102539 -29.67312812805176 C 40.26578140258789 -32.8035774230957 39.28039932250977 -35.58025741577148 37.62726974487305 -37.49169921875 C 36.02701950073242 -39.34198760986328 33.88750076293945 -40.31999969482422 31.44000053405762 -40.31999969482422 Z"/><path class="e" d="M 32.31999969482422 -55.27999877929688 C 15.28000259399414 -55.27999877929688 4.080001831054688 -39.91999816894531 4.960002899169922 -22.71999931335449 C 5.680000305175781 -8.639999389648438 15.20000076293945 0.720001220703125 29.04000091552734 0.720001220703125 C 46.40000152587891 0.720001220703125 57.36000061035156 -14.39999771118164 56.40000152587891 -31.7599983215332 C 55.68000030517578 -45.84000015258789 46.15999984741211 -55.27999877929688 32.31999969482422 -55.27999877929688 M 29.84000205993652 -12.15999984741211 C 23.68000030517578 -12.15999984741211 19.28000259399414 -17.36000061035156 18.96000289916992 -24.71999931335449 C 18.47999954223633 -33.43999862670898 23.60000228881836 -42.31999969482422 31.44000053405762 -42.31999969482422 C 37.68000030517578 -42.31999969482422 42.08000183105469 -37.11999893188477 42.40000152587891 -29.7599983215332 C 42.88000106811523 -21.03999710083008 37.76000213623047 -12.15999984741211 29.84000205993652 -12.15999984741211 M 32.31999969482422 -59.27999877929688 C 36.21941375732422 -59.27999877929688 39.90217971801758 -58.61870956420898 43.26599884033203 -57.31448745727539 C 46.60840225219727 -56.01857757568359 49.57423400878906 -54.11460876464844 52.08110046386719 -51.65548706054688 C 54.57254409790039 -49.21149826049805 56.5521240234375 -46.2762451171875 57.96484375 -42.93125534057617 C 59.37484741210938 -39.59270477294922 60.19221115112305 -35.90612030029297 60.39429473876953 -31.97368049621582 C 60.68244552612305 -26.74827766418457 60.01338195800781 -21.70195388793945 58.40568923950195 -16.97381973266602 C 56.78743362426758 -12.2146110534668 54.31462478637695 -8.055309295654297 51.05596923828125 -4.611465454101562 C 48.26937866210938 -1.666519165039062 45.00875854492188 0.6313667297363281 41.36467742919922 2.218379974365234 C 37.5531005859375 3.878334045410156 33.40647888183594 4.720001220703125 29.04000091552734 4.720001220703125 C 25.14201354980469 4.720001220703125 21.46212387084961 4.064022064208984 18.10254669189453 2.770290374755859 C 14.7586784362793 1.482612609863281 11.79231262207031 -0.410919189453125 9.285858154296875 -2.857700347900391 C 6.791511535644531 -5.292655944824219 4.810089111328125 -8.21978759765625 3.396621704101562 -11.55778884887695 C 1.98455810546875 -14.89246368408203 1.166511535644531 -18.57925415039062 0.9652252197265625 -22.51572036743164 C 0.4298896789550781 -32.97899627685547 3.921390533447266 -42.97789764404297 10.54447937011719 -49.9484977722168 C 13.33252334594727 -52.88284301757812 16.57061386108398 -55.17594146728516 20.16877746582031 -56.76409912109375 C 23.95108032226562 -58.43353271484375 28.03933334350586 -59.27999877929688 32.31999969482422 -59.27999877929688 Z M 29.84000205993652 -16.15999984741211 C 31.68054580688477 -16.15999984741211 33.35174560546875 -16.939697265625 34.80716705322266 -18.47744369506836 C 35.97940063476562 -19.71597671508789 36.93596649169922 -21.38184356689453 37.57345581054688 -23.29494285583496 C 38.23393249511719 -25.27702140808105 38.52184295654297 -27.43657684326172 38.40604400634766 -29.5401439666748 L 38.40477752685547 -29.56318855285645 L 38.40377807617188 -29.58625411987305 C 38.28715515136719 -32.2684211730957 37.47416687011719 -34.61133193969727 36.11454772949219 -36.18338775634766 C 34.88838958740234 -37.60114288330078 33.31564331054688 -38.31999969482422 31.44000053405762 -38.31999969482422 C 29.64062309265137 -38.31999969482422 27.99912261962891 -37.54962158203125 26.56108856201172 -36.03025436401367 C 25.38827896118164 -34.79109954833984 24.43026733398438 -33.12223052978516 23.79063415527344 -31.20407676696777 C 23.12721252441406 -29.21454238891602 22.837890625 -27.04841041564941 22.95395660400391 -24.93985366821289 L 22.95522308349609 -24.91680908203125 L 22.95622253417969 -24.89374351501465 C 23.07281112670898 -22.21235275268555 23.88464736938477 -19.86667633056641 25.24220275878906 -18.28878784179688 C 26.45751190185547 -16.876220703125 28.00443267822266 -16.15999984741211 29.84000205993652 -16.15999984741211 Z"/></g><g class="a" transform="translate(59 87)"><path class="d" d="M 40.23999786376953 2.880000114440918 C 36.83276748657227 2.880000114440918 34.07693862915039 1.23550009727478 32.27042007446289 -1.87572979927063 L 23.72783851623535 -16.53008270263672 L 21.24905967712402 -14.09261703491211 L 20.06155967712402 -5.409019947052002 L 20.06040000915527 -5.400559902191162 L 20.05916976928711 -5.392119884490967 C 19.68762969970703 -2.837759733200073 18.58641815185547 -0.7192198634147644 16.87458992004395 0.7344801425933838 C 15.28336906433105 2.085750102996826 13.2657995223999 2.800000190734863 11.03999900817871 2.800000190734863 C 8.389669418334961 2.800000190734863 5.920339107513428 1.69605016708374 4.265169143676758 -0.2287898510694504 C 2.51918363571167 -2.2592453956604 1.807509779930115 -5.03520679473877 2.260632991790771 -8.046781539916992 L 7.937648773193359 -48.98526000976562 C 8.266944885253906 -51.51169586181641 9.358418464660645 -53.62735366821289 11.0943489074707 -55.10358047485352 C 12.68407917022705 -56.45547866821289 14.76720905303955 -57.20000076293945 16.95999908447266 -57.20000076293945 C 19.56650924682617 -57.20000076293945 22.00392913818359 -56.1202392578125 23.64727973937988 -54.23759078979492 C 25.41375923156738 -52.2138786315918 26.15755844116211 -49.41970062255859 25.74165916442871 -46.36977005004883 L 25.74092864990234 -46.36439895629883 L 25.74016952514648 -46.35903167724609 L 24.95876312255859 -40.85198211669922 L 37.6525993347168 -54.55894088745117 L 37.6580696105957 -54.56486129760742 L 37.66360092163086 -54.57072830200195 C 39.18840026855469 -56.19083023071289 41.43960952758789 -57.11999893188477 43.84000015258789 -57.11999893188477 C 46.15402984619141 -57.11999893188477 48.325439453125 -56.22298812866211 49.95420837402344 -54.59421157836914 C 51.58298873901367 -52.96543884277344 52.47999954223633 -50.79402923583984 52.47999954223633 -48.47999954223633 C 52.47999954223633 -45.98461151123047 51.50333786010742 -43.7949104309082 49.49420928955078 -41.78578948974609 L 49.48360061645508 -41.77516937255859 L 49.47282028198242 -41.76470947265625 L 37.06821441650391 -29.72710609436035 L 47.81477737426758 -10.99524974822998 C 48.44763946533203 -9.887760162353516 49.20000076293945 -8.152819633483887 49.20000076293945 -6.159999847412109 C 49.20000076293945 -3.769609928131104 48.27141952514648 -1.50983989238739 46.58530044555664 0.2030301541090012 C 44.88600921630859 1.92930018901825 42.63253784179688 2.880000114440918 40.23999786376953 2.880000114440918 Z"/><path class="e" d="M 16.95999908447266 -55.20000076293945 C 13.59999847412109 -55.20000076293945 10.47999954223633 -53.04000091552734 9.919998168945312 -48.72000122070312 L 4.239997863769531 -7.759998321533203 C 3.439998626708984 -2.479999542236328 6.959999084472656 0.7999992370605469 11.04000091552734 0.7999992370605469 C 14.39999771118164 0.7999992370605469 17.43999862670898 -1.279998779296875 18.07999801635742 -5.680000305175781 L 19.36000061035156 -15.04000091552734 L 24.15999984741211 -19.7599983215332 L 34 -2.880001068115234 C 35.43999862670898 -0.4000015258789062 37.51999664306641 0.8800010681152344 40.23999786376953 0.8800010681152344 C 44.07999801635742 0.8800010681152344 47.19999694824219 -2.319999694824219 47.19999694824219 -6.159999847412109 C 47.19999694824219 -7.520000457763672 46.72000122070312 -8.880001068115234 46.07999801635742 -10 L 34.55999755859375 -30.07999992370605 L 48.07999801635742 -43.20000076293945 C 49.52000045776367 -44.63999938964844 50.47999954223633 -46.31999969482422 50.47999954223633 -48.47999954223633 C 50.47999954223633 -52.15999984741211 47.52000045776367 -55.11999893188477 43.84000015258789 -55.11999893188477 C 42.23999786376953 -55.11999893188477 40.39999771118164 -54.56000137329102 39.11999893188477 -53.20000076293945 L 22.07999992370605 -34.79999923706055 L 23.7599983215332 -46.63999938964844 C 24.47999954223633 -51.91999816894531 21.04000091552734 -55.20000076293945 16.95999908447266 -55.20000076293945 M 16.95999908447266 -59.20000076293945 C 20.1441764831543 -59.20000076293945 23.13077735900879 -57.87064361572266 25.15399932861328 -55.55279922485352 C 27.15254402160645 -53.26323699951172 28.08204650878906 -50.20467376708984 27.80782890319824 -46.87191390991211 L 36.18518829345703 -55.91788864135742 L 36.19614410400391 -55.92972183227539 L 36.20719909667969 -55.94145584106445 C 38.1083869934082 -57.96146774291992 40.89043426513672 -59.11999893188477 43.84000015258789 -59.11999893188477 C 46.68825531005859 -59.11999893188477 49.36190032958984 -58.01495361328125 51.3684196472168 -56.0084228515625 C 53.37495422363281 -54.00189971923828 54.47999954223633 -51.32825469970703 54.47999954223633 -48.47999954223633 C 54.47999954223633 -45.46956634521484 53.27834320068359 -42.74150085449219 50.90842056274414 -40.37157821655273 L 50.88718795776367 -40.35034561157227 L 50.86564254760742 -40.32942199707031 L 39.57644271850586 -29.37421989440918 L 49.54956436157227 -11.99051284790039 L 49.55126571655273 -11.98753356933594 L 49.552978515625 -11.98455429077148 C 50.30434417724609 -10.6696662902832 51.20000076293945 -8.591800689697266 51.20000076293945 -6.159999847412109 C 51.20000076293945 -3.2413330078125 50.06732177734375 -0.4832878112792969 48.0106086730957 1.606067657470703 C 45.93236541748047 3.717300415039062 43.17271041870117 4.880001068115234 40.23999786376953 4.880001068115234 C 38.15061187744141 4.880001068115234 36.24211120605469 4.365646362304688 34.56752014160156 3.351234436035156 C 32.95696258544922 2.375614166259766 31.60305786132812 0.9563446044921875 30.54348182678223 -0.8669166564941406 L 23.2956657409668 -13.3001594543457 L 23.13811111450195 -13.14522933959961 L 22.04310989379883 -5.138034820556641 L 22.04079818725586 -5.121131896972656 L 22.03834342956543 -5.104244232177734 C 21.59566497802734 -2.060798645019531 20.25773239135742 0.4853439331054688 18.169189453125 2.258956909179688 C 16.21163177490234 3.921321868896484 13.74639892578125 4.799999237060547 11.04000091552734 4.799999237060547 C 7.806297302246094 4.799999237060547 4.784244537353516 3.442356109619141 2.748722076416016 1.075199127197266 C 0.6196746826171875 -1.400733947753906 -0.2561607360839844 -4.740921020507812 0.2810935974121094 -8.332393646240234 L 5.955730438232422 -49.25372314453125 C 6.351829528808594 -52.27651214599609 7.680423736572266 -54.82579040527344 9.798709869384766 -56.62716674804688 C 11.74971008300781 -58.28627777099609 14.29296493530273 -59.20000076293945 16.95999908447266 -59.20000076293945 Z"/></g><path class="b" d="M11.047,20.405a.644.644,0,0,1-.654-.661V14.3H6.948a.654.654,0,0,1-.57-.96l4.767-9.432a.615.615,0,0,1,.561-.361.654.654,0,0,1,.656.664V9.721h3.29a.641.641,0,0,1,.548.309.665.665,0,0,1,.035.638l-4.611,9.365A.63.63,0,0,1,11.047,20.405Z" transform="matrix(0.978, 0.208, -0.208, 0.978, 65.555, 45.721)"/><rect class="c" width="120" height="120"/></svg>