<svg xmlns="http://www.w3.org/2000/svg" width="120" height="120" viewBox="0 0 120 120"><defs><style>.a{fill:#65b1ef;}.b{fill:#ff717f;}.c,.f{fill:#fff;}.d{fill:none;}.e,.f{stroke:none;}</style></defs><g transform="translate(5 77.513)"><path class="e" d="M 30.25678825378418 -3.442393779754639 L 10.209547996521 -3.442393779754639 C 7.999297618865967 -3.442393779754639 6.071427822113037 -4.086533546447754 4.634357929229736 -5.305173873901367 C 3.469067811965942 -6.293343544006348 2.079997777938843 -8.145163536071777 2.079997777938843 -11.35561370849609 C 2.079997777938843 -13.12717151641846 2.262731075286865 -14.65149784088135 2.460302352905273 -16.03481483459473 L 7.145040035247803 -49.69286346435547 C 7.447200298309326 -52.08708953857422 8.452953338623047 -54.0506706237793 10.05416774749756 -55.3723030090332 C 11.50277805328369 -56.56798553466797 13.37684726715088 -57.19999313354492 15.47375774383545 -57.19999313354492 C 17.69056701660156 -57.19999313354492 19.62088775634766 -56.55065536499023 21.05601692199707 -55.32218551635742 C 22.21807861328125 -54.32745361328125 23.60330772399902 -52.46039199829102 23.60330772399902 -49.21466445922852 C 23.60330772399902 -47.77404403686523 23.42780685424805 -46.52000427246094 23.24201774597168 -45.19234466552734 C 23.2125072479248 -44.98147201538086 23.18239784240723 -44.76634216308594 23.15228843688965 -44.54557418823242 L 19.57257080078125 -18.69193458557129 L 30.25678825378418 -18.69193458557129 C 34.46109771728516 -18.69193458557129 37.88155746459961 -15.27147388458252 37.88155746459961 -11.06716346740723 C 37.88155746459961 -6.862853527069092 34.46109771728516 -3.442393779754639 30.25678825378418 -3.442393779754639 Z"/><path class="f" d="M 30.25678825378418 -5.442393779754639 C 33.35761642456055 -5.442393779754639 35.88155746459961 -7.966323852539062 35.88155746459961 -11.06716346740723 C 35.88155746459961 -14.16800403594971 33.35761642456055 -16.69193458557129 30.25678825378418 -16.69193458557129 L 17.27656745910645 -16.69193458557129 L 21.17062759399414 -44.81580352783203 C 21.3869686126709 -46.40227508544922 21.60330772399902 -47.70030212402344 21.60330772399902 -49.21466445922852 C 21.60330772399902 -53.46929550170898 18.71881866455078 -55.19999313354492 15.47375774383545 -55.19999313354492 C 12.37291812896729 -55.19999313354492 9.632658004760742 -53.46929550170898 9.127867698669434 -49.43100357055664 L 4.440557956695557 -15.75447368621826 C 4.224227905273438 -14.24011325836182 4.079997539520264 -12.86997413635254 4.079997539520264 -11.35561370849609 C 4.079997539520264 -7.173093795776367 6.964497566223145 -5.442393779754639 10.209547996521 -5.442393779754639 L 30.25678825378418 -5.442393779754639 M 30.25678825378418 -1.442393660545349 L 10.209547996521 -1.442393660545349 C 7.519227504730225 -1.442393660545349 5.144057750701904 -2.250653743743896 3.340827703475952 -3.779793739318848 C 1.853247761726379 -5.041263580322266 0.07999774068593979 -7.379583835601807 0.07999774068593979 -11.35561370849609 C 0.07999774068593979 -13.25461387634277 0.2818391919136047 -14.92666721343994 0.4796501994132996 -16.31238746643066 L 5.162587642669678 -49.95750045776367 C 5.532005310058594 -52.86014556884766 6.782833576202393 -55.26543045043945 8.781027793884277 -56.91474533081055 C 10.59230804443359 -58.40976333618164 12.90660762786865 -59.19999313354492 15.47375774383545 -59.19999313354492 C 18.17409706115723 -59.19999313354492 20.55413818359375 -58.38446426391602 22.35659790039062 -56.841552734375 C 23.83772850036621 -55.57370376586914 25.60330772399902 -53.22133255004883 25.60330772399902 -49.21466445922852 C 25.60330772399902 -47.63477325439453 25.41843795776367 -46.31374359130859 25.22270774841309 -44.91515350341797 C 25.19351768493652 -44.7065544128418 25.16372680664062 -44.49374389648438 25.13394737243652 -44.27534484863281 L 25.13338851928711 -44.27126312255859 L 25.13282775878906 -44.26719284057617 L 21.86857223510742 -20.69193458557129 L 30.25678825378418 -20.69193458557129 C 35.56390762329102 -20.69193458557129 39.88155746459961 -16.37428283691406 39.88155746459961 -11.06716346740723 C 39.88155746459961 -5.760043621063232 35.56390762329102 -1.442393660545349 30.25678825378418 -1.442393660545349 Z"/></g><g class="a" transform="translate(29.355 92.042)"><path class="e" d="M 26.66105461120605 -2.801262140274048 C 23.34544563293457 -2.801262140274048 20.22250556945801 -3.356472253799438 17.37898445129395 -4.45148229598999 C 14.56932544708252 -5.533452033996582 12.07865524291992 -7.122722148895264 9.976155281066895 -9.175171852111816 C 7.881054878234863 -11.22039222717285 6.215085029602051 -13.68301200866699 5.024525165557861 -16.4946117401123 C 3.825015068054199 -19.32732200622559 3.129684925079346 -22.46756172180176 2.957844972610474 -25.82808303833008 C 2.497674942016602 -34.82234191894531 5.484724998474121 -43.40240097045898 11.15310478210449 -49.36820220947266 C 13.51930522918701 -51.85856246948242 16.26463508605957 -53.80346298217773 19.31284523010254 -55.14888381958008 C 22.51668548583984 -56.56299209594727 25.98372459411621 -57.28000259399414 29.6176643371582 -57.28000259399414 C 43.08713150024414 -57.28000259399414 52.6120719909668 -47.99889373779297 53.32064819335938 -34.18550872802734 C 53.56925964355469 -29.68086051940918 52.9941520690918 -25.33445167541504 51.61127471923828 -21.2674617767334 C 50.22746658325195 -17.19775199890137 48.11753463745117 -13.64592266082764 45.34006500244141 -10.71062183380127 C 42.97753524780273 -8.213831901550293 40.21509552001953 -6.266492366790771 37.12947463989258 -4.92269229888916 C 33.89717483520508 -3.515012264251709 30.37508583068848 -2.801262140274048 26.66105461120605 -2.801262140274048 Z M 28.82442474365234 -41.59778213500977 C 26.23295593261719 -41.59778213500977 24.36833572387695 -40.20243072509766 23.26044464111328 -39.03188323974609 C 20.75127410888672 -36.38080215454102 19.33790588378906 -32.09345245361328 19.57187461853027 -27.84295272827148 L 19.57250595092773 -27.8314323425293 L 19.57300567626953 -27.81990242004395 C 19.69367408752441 -25.04450225830078 20.56290435791016 -22.58296203613281 22.02056503295898 -20.88871192932129 C 23.4149341583252 -19.26802253723145 25.26895523071289 -18.41137313842773 27.38217544555664 -18.41137313842773 C 30.01987457275391 -18.41137313842773 31.90705490112305 -19.82030296325684 33.02572631835938 -21.00224304199219 C 35.52974319458008 -23.64789199829102 36.94026565551758 -27.92567253112793 36.70683670043945 -32.16619110107422 L 36.70620346069336 -32.1777229309082 L 36.70570373535156 -32.18925094604492 C 36.46103668212891 -37.8167839050293 33.29379653930664 -41.59778213500977 28.82442474365234 -41.59778213500977 Z"/><path class="f" d="M 29.6176643371582 -55.28000259399414 C 14.25772476196289 -55.28000259399414 4.161994934082031 -41.43440246582031 4.955226898193359 -25.93022155761719 C 5.604236602783203 -13.23842239379883 14.18561553955078 -4.801261901855469 26.66105461120605 -4.801261901855469 C 42.30943298339844 -4.801261901855469 52.18883514404297 -18.43052291870117 51.323486328125 -34.07893371582031 C 50.67447662353516 -46.77073287963867 42.09310531616211 -55.28000259399414 29.6176643371582 -55.28000259399414 M 27.38217544555664 -16.41137313842773 C 21.82952499389648 -16.41137313842773 17.86334609985352 -21.09868240356445 17.57489395141602 -27.7330322265625 C 17.14221572875977 -35.59329223632812 21.75741577148438 -43.59778213500977 28.82442474365234 -43.59778213500977 C 34.44918441772461 -43.59778213500977 38.41537475585938 -38.91046142578125 38.70381546020508 -32.276123046875 C 39.13649749755859 -24.41586303710938 34.52130508422852 -16.41137313842773 27.38217544555664 -16.41137313842773 M 29.6176643371582 -59.28000259399414 C 33.18157577514648 -59.28000259399414 36.5491943359375 -58.67493057250977 39.62700653076172 -57.48161315917969 C 42.6900749206543 -56.29399108886719 45.408447265625 -54.54876327514648 47.70658493041992 -52.29438018798828 C 49.98981475830078 -50.05464172363281 51.80352401733398 -47.36568450927734 53.09735488891602 -44.30220031738281 C 54.3862419128418 -41.25040435791016 55.13328170776367 -37.88276672363281 55.31781005859375 -34.29207611083984 C 55.58009719848633 -29.5318489074707 54.97013092041016 -24.93307495117188 53.50480651855469 -20.62361145019531 C 52.02769470214844 -16.27952194213867 49.76945495605469 -12.4818229675293 46.79280471801758 -9.336013793945312 C 44.24428558349609 -6.642662048339844 41.26174545288086 -4.540882110595703 37.92803573608398 -3.089042663574219 C 34.44228363037109 -1.57098388671875 30.65152549743652 -0.8012619018554688 26.66105461120605 -0.8012619018554688 C 23.0987434387207 -0.8012619018554688 19.73399353027344 -1.401432037353516 16.66025543212891 -2.5850830078125 C 13.5958366394043 -3.765163421630859 10.87693405151367 -5.500873565673828 8.579086303710938 -7.744022369384766 C 6.293006896972656 -9.975662231445312 4.477443695068359 -12.65740203857422 3.182823181152344 -15.71475219726562 C 1.891963958740234 -18.76320266723633 1.144256591796875 -22.13145065307617 0.9604454040527344 -25.7259407043457 C 0.4724044799804688 -35.26505279541016 3.659015655517578 -44.38448333740234 9.703216552734375 -50.74582290649414 C 12.25247573852539 -53.42884063720703 15.21390533447266 -55.52584075927734 18.50525665283203 -56.97858047485352 C 21.96511459350586 -58.50569152832031 25.7038745880127 -59.28000259399414 29.6176643371582 -59.28000259399414 Z M 27.38217544555664 -20.41137313842773 C 28.92861557006836 -20.41137313842773 30.33866500854492 -21.07272338867188 31.57316589355469 -22.37704086303711 C 32.59051513671875 -23.45193099975586 33.42243576049805 -24.90292358398438 33.97899627685547 -26.57315063476562 C 34.55880737304688 -28.31316184997559 34.8115348815918 -30.20919227600098 34.70986557006836 -32.0562744140625 L 34.70859527587891 -32.07932281494141 L 34.70759582519531 -32.10238265991211 C 34.60631561279297 -34.43171310424805 33.90747451782227 -36.45808410644531 32.73978424072266 -37.80821990966797 C 31.71279525756836 -38.99568939208984 30.39547538757324 -39.59778213500977 28.82442474365234 -39.59778213500977 C 27.31509590148926 -39.59778213500977 25.93181419372559 -38.94483184814453 24.7129955291748 -37.65707397460938 C 23.69509506225586 -36.58160400390625 22.86186599731445 -35.12788391113281 22.30338668823242 -33.45306396484375 C 21.72092437744141 -31.70636177062988 21.46692657470703 -29.8044319152832 21.56884384155273 -27.952880859375 L 21.57011413574219 -27.92984390258789 L 21.57111358642578 -27.90678405761719 C 21.67238616943359 -25.57778167724609 22.37042617797852 -23.54863357543945 23.53666687011719 -22.1931037902832 C 24.55383491516113 -21.01083374023438 25.84765434265137 -20.41137313842773 27.38217544555664 -20.41137313842773 Z"/></g><g class="b" transform="translate(74.098 102.442)"><path class="e" d="M 30.25678825378418 -3.442393779754639 L 10.209547996521 -3.442393779754639 C 7.999297618865967 -3.442393779754639 6.071427822113037 -4.086533546447754 4.634357929229736 -5.305173873901367 C 3.469067811965942 -6.293343544006348 2.079997777938843 -8.145163536071777 2.079997777938843 -11.35561370849609 C 2.079997777938843 -13.12717151641846 2.262731075286865 -14.65149784088135 2.460302352905273 -16.03481483459473 L 7.145040035247803 -49.69286346435547 C 7.447200298309326 -52.08708953857422 8.452953338623047 -54.0506706237793 10.05416774749756 -55.3723030090332 C 11.50277805328369 -56.56798553466797 13.37684726715088 -57.19999313354492 15.47375774383545 -57.19999313354492 C 17.69056701660156 -57.19999313354492 19.62088775634766 -56.55065536499023 21.05601692199707 -55.32218551635742 C 22.21807861328125 -54.32745361328125 23.60330772399902 -52.46039199829102 23.60330772399902 -49.21466445922852 C 23.60330772399902 -47.77404403686523 23.42780685424805 -46.52000427246094 23.24201774597168 -45.19234466552734 C 23.2125072479248 -44.98147201538086 23.18239784240723 -44.76634216308594 23.15228843688965 -44.54557418823242 L 19.57257080078125 -18.69193458557129 L 30.25678825378418 -18.69193458557129 C 34.46109771728516 -18.69193458557129 37.88155746459961 -15.27147388458252 37.88155746459961 -11.06716346740723 C 37.88155746459961 -6.862853527069092 34.46109771728516 -3.442393779754639 30.25678825378418 -3.442393779754639 Z"/><path class="f" d="M 30.25678825378418 -5.442393779754639 C 33.35761642456055 -5.442393779754639 35.88155746459961 -7.966323852539062 35.88155746459961 -11.06716346740723 C 35.88155746459961 -14.16800403594971 33.35761642456055 -16.69193458557129 30.25678825378418 -16.69193458557129 L 17.27656745910645 -16.69193458557129 L 21.17062759399414 -44.81580352783203 C 21.3869686126709 -46.40227508544922 21.60330772399902 -47.70030212402344 21.60330772399902 -49.21466445922852 C 21.60330772399902 -53.46929550170898 18.71881866455078 -55.19999313354492 15.47375774383545 -55.19999313354492 C 12.37291812896729 -55.19999313354492 9.632658004760742 -53.46929550170898 9.127867698669434 -49.43100357055664 L 4.440557956695557 -15.75447368621826 C 4.224227905273438 -14.24011325836182 4.079997539520264 -12.86997413635254 4.079997539520264 -11.35561370849609 C 4.079997539520264 -7.173093795776367 6.964497566223145 -5.442393779754639 10.209547996521 -5.442393779754639 L 30.25678825378418 -5.442393779754639 M 30.25678825378418 -1.442393660545349 L 10.209547996521 -1.442393660545349 C 7.519227504730225 -1.442393660545349 5.144057750701904 -2.250653743743896 3.340827703475952 -3.779793739318848 C 1.853247761726379 -5.041263580322266 0.07999774068593979 -7.379583835601807 0.07999774068593979 -11.35561370849609 C 0.07999774068593979 -13.25461387634277 0.2818391919136047 -14.92666721343994 0.4796501994132996 -16.31238746643066 L 5.162587642669678 -49.95750045776367 C 5.532005310058594 -52.86014556884766 6.782833576202393 -55.26543045043945 8.781027793884277 -56.91474533081055 C 10.59230804443359 -58.40976333618164 12.90660762786865 -59.19999313354492 15.47375774383545 -59.19999313354492 C 18.17409706115723 -59.19999313354492 20.55413818359375 -58.38446426391602 22.35659790039062 -56.841552734375 C 23.83772850036621 -55.57370376586914 25.60330772399902 -53.22133255004883 25.60330772399902 -49.21466445922852 C 25.60330772399902 -47.63477325439453 25.41843795776367 -46.31374359130859 25.22270774841309 -44.91515350341797 C 25.19351768493652 -44.7065544128418 25.16372680664062 -44.49374389648438 25.13394737243652 -44.27534484863281 L 25.13338851928711 -44.27126312255859 L 25.13282775878906 -44.26719284057617 L 21.86857223510742 -20.69193458557129 L 30.25678825378418 -20.69193458557129 C 35.56390762329102 -20.69193458557129 39.88155746459961 -16.37428283691406 39.88155746459961 -11.06716346740723 C 39.88155746459961 -5.760043621063232 35.56390762329102 -1.442393660545349 30.25678825378418 -1.442393660545349 Z"/></g><path class="c" d="M11.047,20.405a.644.644,0,0,1-.654-.661V14.3H6.948a.654.654,0,0,1-.57-.96l4.767-9.432a.615.615,0,0,1,.561-.361.654.654,0,0,1,.656.664V9.721h3.29a.641.641,0,0,1,.548.309.665.665,0,0,1,.035.638l-4.611,9.365A.63.63,0,0,1,11.047,20.405Z" transform="matrix(0.978, 0.208, -0.208, 0.978, 46.555, 67.721)"/><path class="c" d="M11.047,20.405a.644.644,0,0,1-.654-.661V14.3H6.948a.654.654,0,0,1-.57-.96l4.767-9.432a.615.615,0,0,1,.561-.361.654.654,0,0,1,.656.664V9.721h3.29a.641.641,0,0,1,.548.309.665.665,0,0,1,.035.638l-4.611,9.365A.63.63,0,0,1,11.047,20.405Z" transform="matrix(0.978, 0.208, -0.208, 0.978, 51.555, 28.721)"/><rect class="d" width="120" height="120"/></svg>