<svg xmlns="http://www.w3.org/2000/svg" xmlns:xlink="http://www.w3.org/1999/xlink" width="64" height="64" viewBox="0 0 64 64"><defs><style>.a,.e,.f,.h{fill:none;}.a,.c,.e,.f{stroke:#000;stroke-width:2px;}.b{clip-path:url(#a);}.d{fill:#fff;}.d,.e{stroke-linejoin:round;}.e,.f{stroke-linecap:round;}.g,.i{stroke:none;}</style><clipPath id="a"><circle class="a" cx="32" cy="32" r="32"/></clipPath></defs><g class="b"><g class="c"><circle class="g" cx="32" cy="32" r="32"/><circle class="h" cx="32" cy="32" r="31"/></g><g class="d" transform="translate(-1406 -1921)"><path class="g" d="M 1459 1986 L 1458 1986 L 1418 1986 L 1417 1986 L 1417 1985 L 1417 1941 L 1417 1935 L 1417 1933.233764648438 L 1418.514526367188 1934.142456054688 L 1428.276977539062 1940 L 1431.5 1940 L 1437.199951171875 1932.400024414062 L 1438 1931.333374023438 L 1438.800048828125 1932.400024414062 L 1444.5 1940 L 1447.723022460938 1940 L 1457.485473632812 1934.142456054688 L 1459 1933.233764648438 L 1459 1935 L 1459 1940.87939453125 L 1459 1985 L 1459 1986 Z"/><path class="i" d="M 1458 1985 L 1458 1940.87939453125 L 1458 1935 L 1448 1941 L 1444 1941 L 1438 1933 L 1432 1941 L 1428 1941 L 1418 1935 L 1418 1941 L 1418 1985 L 1458 1985 M 1458 1987 L 1418 1987 C 1416.895385742188 1987 1416 1986.104614257812 1416 1985 L 1416 1941 L 1416 1935 C 1416 1934.279418945312 1416.387573242188 1933.614624023438 1417.0146484375 1933.259643554688 C 1417.320434570312 1933.08642578125 1417.660400390625 1933 1418 1933 C 1418.3564453125 1933 1418.712524414062 1933.095092773438 1419.028930664062 1933.285034179688 L 1428.553955078125 1939 L 1431 1939 L 1436.400024414062 1931.800048828125 C 1436.777709960938 1931.29638671875 1437.370483398438 1931 1438 1931 C 1438.629516601562 1931 1439.222290039062 1931.29638671875 1439.599975585938 1931.800048828125 L 1445 1939 L 1447.446044921875 1939 L 1456.971069335938 1933.285034179688 C 1457.287353515625 1933.09521484375 1457.6435546875 1933 1458 1933 C 1458.339599609375 1933 1458.679443359375 1933.08642578125 1458.9853515625 1933.259643554688 C 1459.612426757812 1933.614624023438 1460 1934.279418945312 1460 1935 L 1460 1940.87939453125 L 1460 1985 C 1460 1986.104614257812 1459.104614257812 1987 1458 1987 Z"/></g><g class="c" transform="translate(21 30)"><circle class="g" cx="2" cy="2" r="2"/><circle class="h" cx="2" cy="2" r="1"/></g><g class="c" transform="translate(29 29)"><circle class="g" cx="3" cy="3" r="3"/><circle class="h" cx="3" cy="3" r="2"/></g><path class="e" d="M1430,1959l4,2,4-2,4,2,4-2,4,2,4-2" transform="translate(-1410 -1919)"/><g class="c" transform="translate(39 30)"><circle class="g" cx="2" cy="2" r="2"/><circle class="h" cx="2" cy="2" r="1"/></g><g class="a" transform="translate(36 27)"><circle class="g" cx="5" cy="5" r="5"/><circle class="h" cx="5" cy="5" r="4"/></g><g class="a" transform="translate(18 27)"><circle class="g" cx="5" cy="5" r="5"/><circle class="h" cx="5" cy="5" r="4"/></g><g class="a" transform="translate(26 26)"><circle class="g" cx="6" cy="6" r="6"/><circle class="h" cx="6" cy="6" r="5"/></g><g class="a"><circle class="g" cx="32" cy="32" r="32"/><circle class="h" cx="32" cy="32" r="31"/></g><line class="f" y2="12" transform="translate(25 53)"/><line class="f" y2="12" transform="translate(32 53)"/><line class="f" y2="12" transform="translate(39 53)"/></g></svg>