<svg xmlns="http://www.w3.org/2000/svg" xmlns:xlink="http://www.w3.org/1999/xlink" width="64" height="64" viewBox="0 0 64 64"><defs><style>.a,.e,.f,.h{fill:none;}.a,.c,.e,.f{stroke:#000;stroke-width:2px;}.b{clip-path:url(#a);}.d{fill:#fff;}.e,.f{stroke-linecap:round;}.f{stroke-linejoin:round;}.g,.i{stroke:none;}</style><clipPath id="a"><circle class="a" cx="32" cy="32" r="32"/></clipPath></defs><g class="b"><g class="c"><circle class="g" cx="32" cy="32" r="32"/><circle class="h" cx="32" cy="32" r="31"/></g><g class="d"><path class="g" d="M 53 67 L 52 67 L 12 67 L 11 67 L 11 66 L 11 16 L 11 15.32297039031982 L 11.6286096572876 15.07151985168457 L 21.62861061096191 11.07151985168457 L 23 10.52297019958496 L 23 12 L 23 15 L 29.76392936706543 15 L 33.55279159545898 13.10556983947754 L 34.82991027832031 12.46700954437256 L 34.9934196472168 13.88547992706299 L 35.12189483642578 15 L 41.80741119384766 15 L 51.62860870361328 11.07151985168457 L 53 10.52297019958496 L 53 12 L 53 16 L 53 66 L 53 67 Z"/><path class="i" d="M 52 66 L 52 16 L 52 12 L 42 16 L 34.23054885864258 16 L 34 14 L 30 16 L 22 16 L 22 12 L 12 16 L 12 66 L 52 66 M 54 68 L 52 68 L 12 68 L 10 68 L 10 66 L 10 16 L 10 14.64593029022217 L 11.25722026824951 14.14305019378662 L 21.2572193145752 10.14305019378662 L 24 9.045929908752441 L 24 12 L 24 14 L 29.52787017822266 14 L 33.10557174682617 12.21115016937256 L 35.65980911254883 10.93402004241943 L 35.98683929443359 13.77097034454346 L 36.01324081420898 14 L 41.61484527587891 14 L 51.25722122192383 10.14305019378662 L 54 9.045929908752441 L 54 12 L 54 16 L 54 66 L 54 68 Z"/></g><g class="c" transform="translate(21 30)"><circle class="g" cx="2" cy="2" r="2"/><circle class="h" cx="2" cy="2" r="1"/></g><g class="c" transform="translate(30 31)"><circle class="g" cx="2" cy="2" r="2"/><circle class="h" cx="2" cy="2" r="1"/></g><g class="c" transform="translate(39 30)"><circle class="g" cx="2" cy="2" r="2"/><circle class="h" cx="2" cy="2" r="1"/></g><g class="a"><circle class="g" cx="32" cy="32" r="32"/><circle class="h" cx="32" cy="32" r="31"/></g><line class="a" y1="4" transform="translate(32 33)"/><path class="e" d="M28,38l4-2,4,2"/><path class="f" d="M1430,1959l4,2,4-2,4,2,4-2,4,2,4-2" transform="translate(1474 2009) rotate(180)"/><path class="f" d="M1430,1959l4,2,4-2,4,2,4-2,4,2,4-2" transform="translate(1474 2014) rotate(180)"/></g></svg>