<svg xmlns="http://www.w3.org/2000/svg" xmlns:xlink="http://www.w3.org/1999/xlink" width="64" height="64" viewBox="0 0 64 64"><defs><style>.a,.e,.g{fill:none;}.a,.c,.e{stroke:#000;stroke-width:2px;}.b{clip-path:url(#a);}.d{fill:#fff;}.e{stroke-linecap:round;}.f,.h{stroke:none;}</style><clipPath id="a"><circle class="a" cx="32" cy="32" r="32"/></clipPath></defs><g class="b"><g class="c"><circle class="f" cx="32" cy="32" r="32"/><circle class="g" cx="32" cy="32" r="31"/></g><g class="d" transform="translate(0 -2)"><path class="f" d="M 53 67 L 52 67 L 12 67 L 11 67 L 11 66 L 11 16 L 11 13.58578968048096 L 12.70711040496826 15.29288959503174 L 16 18.58577919006348 L 19.29289054870605 15.29288959503174 L 20 14.58578968048096 L 20.70710945129395 15.29288959503174 L 24 18.58577919006348 L 27.29289054870605 15.29288959503174 L 28 14.58578968048096 L 28.70710945129395 15.29288959503174 L 32 18.58577919006348 L 35.29288864135742 15.29288959503174 L 36 14.58578968048096 L 36.70711135864258 15.29288959503174 L 40 18.58577919006348 L 43.29288864135742 15.29288959503174 L 44 14.58578968048096 L 44.70711135864258 15.29288959503174 L 48 18.58577919006348 L 51.29288864135742 15.29288959503174 L 53 13.58578968048096 L 53 16 L 53 66 L 53 67 Z"/><path class="h" d="M 52 66 L 52 16 L 48 20 L 44 16 L 40 20 L 36 16 L 32 20 L 28 16 L 24 20 L 20 16 L 16 20 L 12 16 L 12 66 L 52 66 M 54 68 L 52 68 L 12 68 L 10 68 L 10 66 L 10 16 L 10 11.17156982421875 L 13.41421031951904 14.58578968048096 L 16 17.17157936096191 L 18.58579063415527 14.58578968048096 L 20 13.17156982421875 L 21.41420936584473 14.58578968048096 L 24 17.17157936096191 L 26.58579063415527 14.58578968048096 L 28 13.17156982421875 L 29.41420936584473 14.58578968048096 L 32 17.17157936096191 L 34.58578872680664 14.58578968048096 L 36 13.17156982421875 L 37.41421127319336 14.58578968048096 L 40 17.17157936096191 L 42.58578872680664 14.58578968048096 L 44 13.17156982421875 L 45.41421127319336 14.58578968048096 L 48 17.17157936096191 L 50.58578872680664 14.58578968048096 L 54 11.17156982421875 L 54 16 L 54 66 L 54 68 Z"/></g><g class="c" transform="translate(21 30)"><circle class="f" cx="2" cy="2" r="2"/><circle class="g" cx="2" cy="2" r="1"/></g><g class="c" transform="translate(39 30)"><circle class="f" cx="2" cy="2" r="2"/><circle class="g" cx="2" cy="2" r="1"/></g><g class="a" transform="translate(36 27)"><circle class="f" cx="5" cy="5" r="5"/><circle class="g" cx="5" cy="5" r="4"/></g><g class="a"><circle class="f" cx="32" cy="32" r="32"/><circle class="g" cx="32" cy="32" r="31"/></g><path class="e" d="M0,0H24" transform="translate(21 40)"/><g transform="translate(0 -2)"><path class="f" d="M 31.5 61.65139007568359 L 31.5 60 L 31.5 56.5 L 28 56.5 L 27.06574058532715 56.5 L 27.58396911621094 55.72264862060547 L 31.58396911621094 49.72264862060547 L 32.5 48.34860992431641 L 32.5 50 L 32.5 53.5 L 36 53.5 L 36.93426132202148 53.5 L 36.41603088378906 54.27735137939453 L 32.41603088378906 60.27735137939453 L 31.5 61.65139007568359 Z"/><path class="h" d="M 32 50 L 28 56 L 32 56 L 32 60 L 36 54 L 32 54 L 32 50 M 33 46.69721984863281 L 33 50 L 33 53 L 36 53 L 37.86852264404297 53 L 36.83205032348633 54.5546989440918 L 32.83205032348633 60.5546989440918 L 31 63.30278015136719 L 31 60 L 31 57 L 28 57 L 26.1314811706543 57 L 27.16794967651367 55.4453010559082 L 31.16794967651367 49.4453010559082 L 33 46.69721984863281 Z"/></g></g></svg>