<svg xmlns="http://www.w3.org/2000/svg" xmlns:xlink="http://www.w3.org/1999/xlink" width="64" height="64" viewBox="0 0 64 64"><defs><style>.a,.e,.g{fill:none;}.a,.c,.e{stroke:#000;stroke-width:2px;}.b{clip-path:url(#a);}.d{fill:#fff;}.e{stroke-linecap:round;}.f,.h{stroke:none;}</style><clipPath id="a"><circle class="a" cx="32" cy="32" r="32"/></clipPath></defs><g class="b"><g class="c"><circle class="f" cx="32" cy="32" r="32"/><circle class="g" cx="32" cy="32" r="31"/></g><g class="d" transform="translate(0 -2)"><path class="f" d="M 53 67 L 52 67 L 12 67 L 11 67 L 11 66 L 11 16 L 11 14.82530975341797 L 12.15962982177734 15.01282024383545 L 23.95825004577637 16.92070198059082 L 25.22516059875488 15.36783981323242 L 25.66146087646484 14.8330602645874 L 26.31623077392578 15.05132007598877 L 31.72990226745605 16.85587692260742 L 33.29288864135742 15.29288959503174 L 33.72991180419922 14.85587978363037 L 34.31623077392578 15.05132007598877 L 40.08060073852539 16.97277641296387 L 51.83560180664062 15.01360988616943 L 53 14.81954002380371 L 53 16 L 53 66 L 53 67 Z"/><path class="h" d="M 52 66 L 52 16 L 40 18 L 34 16 L 32 18 L 26 16 L 24.36828994750977 18 L 12 16 L 12 66 L 52 66 M 54 68 L 52 68 L 12 68 L 10 68 L 10 66 L 10 16 L 10 13.65060997009277 L 12.31925964355469 14.02565002441406 L 23.54821014404297 15.84141445159912 L 24.45031929016113 14.73569011688232 L 25.32292938232422 13.66611957550049 L 26.63245964050293 14.10262966156006 L 31.4598274230957 15.71175289154053 L 32.58578872680664 14.58578968048096 L 33.45981979370117 13.71175003051758 L 34.63246154785156 14.10262966156006 L 40.16120147705078 15.94554328918457 L 51.67119979858398 14.0272102355957 L 54 13.63908004760742 L 54 16 L 54 66 L 54 68 Z"/></g><g class="c" transform="translate(21 30)"><circle class="f" cx="2" cy="2" r="2"/><circle class="g" cx="2" cy="2" r="1"/></g><g class="c" transform="translate(30 34)"><circle class="f" cx="2" cy="2" r="2"/><circle class="g" cx="2" cy="2" r="1"/></g><g class="c" transform="translate(39 30)"><circle class="f" cx="2" cy="2" r="2"/><circle class="g" cx="2" cy="2" r="1"/></g><g class="a" transform="translate(36 27)"><circle class="f" cx="5" cy="5" r="5"/><circle class="g" cx="5" cy="5" r="4"/></g><g class="a" transform="translate(18 27)"><circle class="f" cx="5" cy="5" r="5"/><circle class="g" cx="5" cy="5" r="4"/></g><g class="a"><circle class="f" cx="32" cy="32" r="32"/><circle class="g" cx="32" cy="32" r="31"/></g><line class="e" x2="8" transform="translate(28 40)"/><line class="a" y1="4" transform="translate(32 36)"/><line class="e" y2="4" transform="translate(19 47)"/><line class="e" y2="4" transform="translate(45 47)"/><line class="e" y2="4" transform="translate(25 49)"/><line class="e" y2="4" transform="translate(32 51)"/><line class="e" y2="4" transform="translate(29 59)"/><line class="e" y2="4" transform="translate(35 59)"/><line class="e" y2="4" transform="translate(39 49)"/><line class="e" y2="3" transform="translate(22 55)"/><line class="e" y2="4" transform="translate(17 57)"/><path class="e" d="M0,0V3" transform="translate(42 55)"/><line class="e" y2="4" transform="translate(47 57)"/></g></svg>