<svg xmlns="http://www.w3.org/2000/svg" xmlns:xlink="http://www.w3.org/1999/xlink" width="64" height="64" viewBox="0 0 64 64"><defs><style>.a,.f,.i{fill:none;}.a,.c,.e,.f,.g{stroke:#000;}.a,.c,.e,.f{stroke-width:2px;}.b{clip-path:url(#a);}.d{fill:#fff;}.d,.e,.f{stroke-linejoin:round;}.f{stroke-linecap:round;}.h,.j{stroke:none;}</style><clipPath id="a"><circle class="a" cx="32" cy="32" r="32"/></clipPath></defs><g class="b"><g class="c"><circle class="h" cx="32" cy="32" r="32"/><circle class="i" cx="32" cy="32" r="31"/></g><g class="d" transform="translate(-1406 -1921)"><path class="h" d="M 1459 1986 L 1458 1986 L 1418 1986 L 1417 1986 L 1417 1985 L 1417 1941 L 1417 1935 L 1417 1933.381958007812 L 1418.447265625 1934.105590820312 L 1430.236083984375 1940 L 1445.763916015625 1940 L 1457.552734375 1934.105590820312 L 1459 1933.381958007812 L 1459 1935 L 1459 1940.87939453125 L 1459 1985 L 1459 1986 Z"/><path class="j" d="M 1458 1985 L 1458 1940.87939453125 L 1458 1935 L 1446 1941 L 1430 1941 L 1418 1935 L 1418 1941 L 1418 1985 L 1458 1985 M 1458 1987 L 1418 1987 C 1416.895385742188 1987 1416 1986.104614257812 1416 1985 L 1416 1941 L 1416 1935 C 1416 1934.306884765625 1416.35888671875 1933.6630859375 1416.948486328125 1933.298706054688 C 1417.269653320312 1933.100219726562 1417.634399414062 1933 1418.000122070312 1933 C 1418.305786132812 1933 1418.612182617188 1933.069946289062 1418.894409179688 1933.211181640625 L 1430.47216796875 1939 L 1445.52783203125 1939 L 1457.105590820312 1933.211181640625 C 1457.387817382812 1933.070068359375 1457.694213867188 1933 1457.999877929688 1933 C 1458.365600585938 1933 1458.730224609375 1933.100219726562 1459.051513671875 1933.298706054688 C 1459.64111328125 1933.6630859375 1460 1934.306884765625 1460 1935 L 1460 1940.87939453125 L 1460 1985 C 1460 1986.104614257812 1459.104614257812 1987 1458 1987 Z"/></g><g class="c" transform="translate(20 30)"><circle class="h" cx="2" cy="2" r="2"/><circle class="i" cx="2" cy="2" r="1"/></g><path class="e" d="M2,0,4,2H0Z" transform="translate(34 36) rotate(180)"/><path class="f" d="M1430,1959l4,2,4-2,4,2,4-2" transform="translate(-1406 -1921)"/><g class="c" transform="translate(40 30)"><circle class="h" cx="2" cy="2" r="2"/><circle class="i" cx="2" cy="2" r="1"/></g><line class="a" y1="4" transform="translate(32 34)"/><g class="a"><circle class="h" cx="32" cy="32" r="32"/><circle class="i" cx="32" cy="32" r="31"/></g><g class="c" transform="translate(26 26)"><circle class="h" cx="1" cy="1" r="1"/><circle class="i" cx="1" cy="1"/></g><g class="c" transform="translate(36 26)"><circle class="h" cx="1" cy="1" r="1"/><circle class="i" cx="1" cy="1"/></g><path class="g" d="M24,60l1.142-4.567L26,52H24l8-6,8,6H38l2,8Z" transform="translate(0 4)"/></g></svg>