<svg xmlns="http://www.w3.org/2000/svg" xmlns:xlink="http://www.w3.org/1999/xlink" width="64" height="64" viewBox="0 0 64 64"><defs><style>.a,.f,.g,.j{fill:none;}.a,.d,.e,.f,.g{stroke:#000;}.a,.d,.e,.f{stroke-width:2px;}.b{clip-path:url(#a);}.c{fill:#fff;}.c,.e,.f{stroke-linejoin:round;}.f{stroke-linecap:round;}.h,.i{stroke:none;}</style><clipPath id="a"><circle class="a" cx="32" cy="32" r="32"/></clipPath></defs><g class="b"><circle cx="32" cy="32" r="32"/><g class="c" transform="translate(-1406 -1921)"><path class="h" d="M 1459 1986 L 1458 1986 L 1418 1986 L 1417 1986 L 1417 1985 L 1417 1941 L 1417 1940.585815429688 L 1417.292846679688 1940.292846679688 L 1423.292846679688 1934.292846679688 L 1424 1933.585815429688 L 1424.707153320312 1934.292846679688 L 1430.414184570312 1940 L 1445.585815429688 1940 L 1451.292846679688 1934.292846679688 L 1451.992919921875 1933.592895507812 L 1452.699829101562 1934.285766601562 L 1458.699829101562 1940.165161132812 L 1459 1940.459228515625 L 1459 1940.87939453125 L 1459 1985 L 1459 1986 Z"/><path class="i" d="M 1458 1985 L 1458 1940.87939453125 L 1452 1935 L 1446 1941 L 1430 1941 L 1424 1935 L 1418 1941 L 1418 1985 L 1458 1985 M 1458 1987 L 1418 1987 C 1416.895385742188 1987 1416 1986.104614257812 1416 1985 L 1416 1941 C 1416 1940.469604492188 1416.210693359375 1939.960815429688 1416.585815429688 1939.585815429688 L 1422.585815429688 1933.585815429688 C 1422.976318359375 1933.1953125 1423.488159179688 1933 1424 1933 C 1424.511840820312 1933 1425.023681640625 1933.1953125 1425.414184570312 1933.585815429688 L 1430.828369140625 1939 L 1445.171630859375 1939 L 1450.585815429688 1933.585815429688 C 1450.97607421875 1933.195556640625 1451.488037109375 1933 1452.000122070312 1933 C 1452.50537109375 1933 1453.0107421875 1933.190307617188 1453.399780273438 1933.571533203125 L 1459.399780273438 1939.450927734375 C 1459.78369140625 1939.827026367188 1460 1940.341918945312 1460 1940.87939453125 L 1460 1985 C 1460 1986.104614257812 1459.104614257812 1987 1458 1987 Z"/></g><g class="d" transform="translate(20 30)"><circle class="h" cx="2" cy="2" r="2"/><circle class="j" cx="2" cy="2" r="1"/></g><path class="e" d="M2,0,4,2H0Z" transform="translate(34 36) rotate(180)"/><path class="f" d="M1430,1959l4,2,4-2,4,2,4-2" transform="translate(-1406 -1921)"/><g class="d" transform="translate(40 30)"><circle class="h" cx="2" cy="2" r="2"/><circle class="j" cx="2" cy="2" r="1"/></g><line class="a" y1="4" transform="translate(32 34)"/><g class="d" transform="translate(24 48)"><path class="h" d="M8,0H8a8,8,0,0,1,8,8v8a0,0,0,0,1,0,0H0a0,0,0,0,1,0,0V8A8,8,0,0,1,8,0Z"/><path class="j" d="M8,1H8a7,7,0,0,1,7,7v6a1,1,0,0,1-1,1H2a1,1,0,0,1-1-1V8A7,7,0,0,1,8,1Z"/></g><line class="g" x2="7" transform="translate(11 36)"/><line class="g" x2="7" transform="translate(46 36)"/><line class="g" x2="7" transform="translate(11 38)"/><line class="g" x2="7" transform="translate(46 38)"/><g class="a"><circle class="h" cx="32" cy="32" r="32"/><circle class="j" cx="32" cy="32" r="31"/></g></g></svg>